<svg xmlns="http://www.w3.org/2000/svg" height="512" viewBox="0 0 512 512" width="512"><path d="m256 0c-141.2 0-256 114.8-256 256s114.8 256 256 256 256-114.8 256-256-114.8-256-256-256zm0 0" data-original="#2196F3" class="active-path" data-old_color="#2196f3" fill="#4C7067"/><path d="m385.8 201.8-138.7 138.7c-4.2 4.2-9.6 6.3-15.1 6.3s-10.9-2.1-15.1-6.3l-69.3-69.3c-8.3-8.3-8.3-21.8 0-30.2 8.3-8.3 21.8-8.3 30.2 0l54.3 54.3 123.6-123.6c8.3-8.3 21.8-8.3 30.2 0 8.3 8.3 8.3 21.8 0 30.2zm0 0" data-original="#FAFAFA" fill="#fafafa"/></svg>