<svg id="f411d8ff-42f4-4a40-bbfe-ffda0a05ca29" data-name="b73a5846-13d6-4e66-b290-92a6b66cc66d" xmlns="http://www.w3.org/2000/svg" xmlns:xlink="http://www.w3.org/1999/xlink" viewBox="0 0 692.11 900"><defs><linearGradient id="bfb84d7b-784f-4ea7-aadc-12c9b9e6675f" x1="-334.52" y1="67.42" x2="-333.52" y2="67.42" gradientTransform="translate(231529.35 -60229.57) scale(692.13 899.97)" gradientUnits="userSpaceOnUse"><stop offset="0" stop-color="#102905"/><stop offset="1" stop-color="#102905"/></linearGradient><linearGradient id="a2166d30-e4f5-4414-abbd-2d872fc81f8b" x1="-334.5" y1="67.42" x2="-333.5" y2="67.42" gradientTransform="translate(221499.49 -57597.79) scale(662.15 860.96)" gradientUnits="userSpaceOnUse"><stop offset="0" stop-color="#fff"/><stop offset="1" stop-color="#fff"/></linearGradient><linearGradient id="aad2f0ee-e306-4b12-a7cc-566f7a46094b" x1="-333.52" y1="67.35" x2="-332.52" y2="67.35" gradientTransform="translate(75708.71 -29143.47) scale(226.3 437.19)" xlink:href="#a2166d30-e4f5-4414-abbd-2d872fc81f8b"/><linearGradient id="fb625bab-f39a-428c-be1f-24ce496a1d11" x1="-333.58" y1="65.55" x2="-332.58" y2="65.55" gradientTransform="translate(78825.99 -1765.7) scale(235.89 34.71)" xlink:href="#a2166d30-e4f5-4414-abbd-2d872fc81f8b"/><linearGradient id="b8ec17f8-515b-4575-ac0d-2fb88ea39c49" x1="-333.58" y1="65.54" x2="-332.58" y2="65.54" gradientTransform="translate(79004.95 -1765.7) scale(235.89 34.71)" xlink:href="#a2166d30-e4f5-4414-abbd-2d872fc81f8b"/><linearGradient id="eac08cc4-f37f-4663-ac42-a55f5665536f" x1="-302.41" y1="61.75" x2="-301.41" y2="61.75" gradientTransform="translate(3299.61 -277.94) scale(10.28 11.07)" xlink:href="#a2166d30-e4f5-4414-abbd-2d872fc81f8b"/><linearGradient id="ab7120ce-2199-4a96-bb57-0a567fc9b794" x1="-302.41" y1="62.23" x2="-301.41" y2="62.23" gradientTransform="translate(3299.61 -368.28) scale(10.28 12.65)" xlink:href="#a2166d30-e4f5-4414-abbd-2d872fc81f8b"/><linearGradient id="f5e1421b-781f-48f7-9e58-ebc23c92bcc8" x1="-302.41" y1="62.44" x2="-301.41" y2="62.44" gradientTransform="translate(3299.63 -482.91) scale(10.28 14)" xlink:href="#a2166d30-e4f5-4414-abbd-2d872fc81f8b"/><linearGradient id="aaad26e4-3137-48e0-b5e7-309f1592f6e6" x1="-302.41" y1="61.75" x2="-301.41" y2="61.75" gradientTransform="translate(3312.79 -277.94) scale(10.28 11.07)" xlink:href="#a2166d30-e4f5-4414-abbd-2d872fc81f8b"/><linearGradient id="a0243b63-217d-4a12-b8ce-e599c19a9e39" x1="-302.41" y1="62.77" x2="-301.41" y2="62.77" gradientTransform="translate(3312.81 -489.42) scale(10.28 14.03)" xlink:href="#a2166d30-e4f5-4414-abbd-2d872fc81f8b"/><linearGradient id="a26f2138-5e57-4182-8e2c-109d95d54dfb" x1="-302.41" y1="62.23" x2="-301.41" y2="62.23" gradientTransform="translate(3312.79 -368.28) scale(10.28 12.65)" xlink:href="#a2166d30-e4f5-4414-abbd-2d872fc81f8b"/><linearGradient id="b6f89453-9760-4971-820f-c562bf2cbd2a" x1="-302.41" y1="61.75" x2="-301.41" y2="61.75" gradientTransform="translate(3410.2 -277.94) scale(10.28 11.07)" xlink:href="#a2166d30-e4f5-4414-abbd-2d872fc81f8b"/><linearGradient id="a2065529-5c4c-4be7-a44d-e34827f4bf14" x1="-302.41" y1="62.23" x2="-301.41" y2="62.23" gradientTransform="translate(3410.2 -368.28) scale(10.28 12.65)" xlink:href="#a2166d30-e4f5-4414-abbd-2d872fc81f8b"/><linearGradient id="ea867a34-aabb-48b6-a4a1-9683f5220c5a" x1="-302.41" y1="62.44" x2="-301.41" y2="62.44" gradientTransform="translate(3410.22 -482.91) scale(10.28 14)" xlink:href="#a2166d30-e4f5-4414-abbd-2d872fc81f8b"/><linearGradient id="b592a0f6-6131-47c7-9e70-8fbb2dc265da" x1="-302.41" y1="61.75" x2="-301.41" y2="61.75" gradientTransform="translate(3421.94 -277.94) scale(10.28 11.07)" xlink:href="#a2166d30-e4f5-4414-abbd-2d872fc81f8b"/><linearGradient id="b4204a4e-0bc5-4297-8d38-36a3397212b9" x1="-302.41" y1="62.77" x2="-301.41" y2="62.77" gradientTransform="translate(3421.96 -489.42) scale(10.28 14.03)" xlink:href="#a2166d30-e4f5-4414-abbd-2d872fc81f8b"/><linearGradient id="a09717ef-603e-421b-a500-0543493db4e5" x1="-302.41" y1="62.23" x2="-301.41" y2="62.23" gradientTransform="translate(3421.94 -368.28) scale(10.28 12.65)" xlink:href="#a2166d30-e4f5-4414-abbd-2d872fc81f8b"/><linearGradient id="a5fc863e-cb93-4175-927a-752bff70477d" x1="-302.41" y1="61.75" x2="-301.41" y2="61.75" gradientTransform="translate(3410.2 -216.78) scale(10.28 11.07)" xlink:href="#a2166d30-e4f5-4414-abbd-2d872fc81f8b"/><linearGradient id="f3911ad8-a29e-48a9-94cc-e0f71d1c2d11" x1="-302.41" y1="62.07" x2="-301.41" y2="62.07" gradientTransform="translate(3410.2 -305.11) scale(10.28 12.65)" xlink:href="#a2166d30-e4f5-4414-abbd-2d872fc81f8b"/><linearGradient id="bf5bb4fc-2f3e-4429-98c4-4c2f90a19152" x1="-302.41" y1="61.75" x2="-301.41" y2="61.75" gradientTransform="translate(3421.94 -216.78) scale(10.28 11.07)" xlink:href="#a2166d30-e4f5-4414-abbd-2d872fc81f8b"/><linearGradient id="b676c9e3-07f9-412a-bb5d-ca4636bbfc5e" x1="-302.41" y1="60.97" x2="-301.41" y2="60.97" gradientTransform="translate(3410.2 -171.7) scale(10.28)" xlink:href="#a2166d30-e4f5-4414-abbd-2d872fc81f8b"/><linearGradient id="b52e50bf-bdc3-4778-82c4-1929069d7491" x1="-302.41" y1="60.97" x2="-301.41" y2="60.97" gradientTransform="translate(3421.94 -171.7) scale(10.28)" xlink:href="#a2166d30-e4f5-4414-abbd-2d872fc81f8b"/><linearGradient id="b8ec69ec-c85e-49e8-9ea2-4c104f2e2068" x1="-302.41" y1="62.07" x2="-301.41" y2="62.07" gradientTransform="translate(3421.94 -305.11) scale(10.28 12.65)" xlink:href="#a2166d30-e4f5-4414-abbd-2d872fc81f8b"/><linearGradient id="a7d9e59e-8cfa-4209-b824-ebf8895b36cc" x1="-302.41" y1="61.75" x2="-301.41" y2="61.75" gradientTransform="translate(3301.47 -216.78) scale(10.28 11.07)" xlink:href="#a2166d30-e4f5-4414-abbd-2d872fc81f8b"/><linearGradient id="ac5ab007-69d9-4005-b770-91b67bb0ef3e" x1="-302.41" y1="62.07" x2="-301.41" y2="62.07" gradientTransform="translate(3301.47 -305.11) scale(10.28 12.65)" xlink:href="#a2166d30-e4f5-4414-abbd-2d872fc81f8b"/><linearGradient id="addaa72c-ba2b-4e47-add9-ea864cc111de" x1="-302.41" y1="61.75" x2="-301.41" y2="61.75" gradientTransform="translate(3313.2 -216.78) scale(10.28 11.07)" xlink:href="#a2166d30-e4f5-4414-abbd-2d872fc81f8b"/><linearGradient id="a9854e97-01a4-4cf0-8c01-ec5670ea7753" x1="-302.41" y1="60.97" x2="-301.41" y2="60.97" gradientTransform="translate(3301.47 -171.7) scale(10.28)" xlink:href="#a2166d30-e4f5-4414-abbd-2d872fc81f8b"/><linearGradient id="f7084611-80e2-4f61-9dde-867d91ac0d04" x1="-302.41" y1="60.97" x2="-301.41" y2="60.97" gradientTransform="translate(3313.2 -171.7) scale(10.28)" xlink:href="#a2166d30-e4f5-4414-abbd-2d872fc81f8b"/><linearGradient id="fb09b11f-e2da-4157-bda1-3ecae3297a7a" x1="-302.41" y1="62.07" x2="-301.41" y2="62.07" gradientTransform="translate(3313.2 -305.11) scale(10.28 12.65)" xlink:href="#a2166d30-e4f5-4414-abbd-2d872fc81f8b"/><linearGradient id="a77ca3fa-1da3-4596-91c0-ba1718ab2975" x1="-329.68" y1="66.3" x2="-328.68" y2="66.3" gradientTransform="translate(20996.12 -3336.37) scale(63 57.39)" xlink:href="#a2166d30-e4f5-4414-abbd-2d872fc81f8b"/><linearGradient id="a191fa3e-9966-429a-9408-8ccecffb2262" x1="-139.26" y1="64.18" x2="-138.26" y2="64.18" gradientTransform="translate(465.78 -903.94) scale(1.71 20.78)" xlink:href="#a2166d30-e4f5-4414-abbd-2d872fc81f8b"/><linearGradient id="f0e02d2c-9def-460e-9066-21b6e7e7b34e" x1="-139.26" y1="64.18" x2="-138.26" y2="64.18" gradientTransform="translate(470.31 -903.94) scale(1.71 20.78)" xlink:href="#a2166d30-e4f5-4414-abbd-2d872fc81f8b"/><linearGradient id="fe071fff-85c3-40d6-a563-0d01caee00ab" x1="-139.26" y1="64.18" x2="-138.26" y2="64.18" gradientTransform="translate(472.57 -903.94) scale(1.71 20.78)" xlink:href="#a2166d30-e4f5-4414-abbd-2d872fc81f8b"/><linearGradient id="e1ff4cc8-a5e8-4254-a21f-105919b3d512" x1="-139.26" y1="64.18" x2="-138.26" y2="64.18" gradientTransform="translate(477.1 -903.94) scale(1.71 20.78)" xlink:href="#a2166d30-e4f5-4414-abbd-2d872fc81f8b"/><linearGradient id="ad3a7c9b-5ca5-4537-96d1-e84e76e000dc" x1="-139.26" y1="64.18" x2="-138.26" y2="64.18" gradientTransform="translate(481.63 -903.94) scale(1.71 20.78)" xlink:href="#a2166d30-e4f5-4414-abbd-2d872fc81f8b"/><linearGradient id="a5ca5e44-94a9-44b6-bf3c-23eb7ba23f85" x1="-139.26" y1="64.18" x2="-138.26" y2="64.18" gradientTransform="translate(483.9 -903.94) scale(1.71 20.78)" xlink:href="#a2166d30-e4f5-4414-abbd-2d872fc81f8b"/><linearGradient id="ac65a9ce-43d2-4d1d-9c82-c90783fd1c21" x1="-139.12" y1="64.18" x2="-138.12" y2="64.18" gradientTransform="translate(488.02 -903.94) scale(1.71 20.78)" xlink:href="#a2166d30-e4f5-4414-abbd-2d872fc81f8b"/><linearGradient id="ea3b1ea2-d448-44f8-ba23-d601967c8df9" x1="-139.26" y1="64.18" x2="-138.26" y2="64.18" gradientTransform="translate(492.96 -903.94) scale(1.71 20.78)" xlink:href="#a2166d30-e4f5-4414-abbd-2d872fc81f8b"/><linearGradient id="e5253204-3a59-4a01-8887-6870296ff76b" x1="-139.26" y1="64.18" x2="-138.26" y2="64.18" gradientTransform="translate(495.23 -903.94) scale(1.71 20.78)" xlink:href="#a2166d30-e4f5-4414-abbd-2d872fc81f8b"/><linearGradient id="a4db9b8d-95bb-4f55-8f9e-a105a1bc6d24" x1="-139.26" y1="64.18" x2="-138.26" y2="64.18" gradientTransform="translate(499.76 -903.94) scale(1.71 20.78)" xlink:href="#a2166d30-e4f5-4414-abbd-2d872fc81f8b"/><linearGradient id="af1f3fee-6c44-41d6-bfd6-3005cc3465e3" x1="-139.12" y1="64.18" x2="-138.12" y2="64.18" gradientTransform="translate(503.88 -903.94) scale(1.71 20.78)" xlink:href="#a2166d30-e4f5-4414-abbd-2d872fc81f8b"/><linearGradient id="f0e03e11-7510-4a95-9de3-8b10b7783fc7" x1="-139.12" y1="64.18" x2="-138.12" y2="64.18" gradientTransform="translate(508.41 -903.94) scale(1.71 20.78)" xlink:href="#a2166d30-e4f5-4414-abbd-2d872fc81f8b"/><linearGradient id="a4024a1e-cac7-42f1-9c21-79f96e4860a5" x1="-140.06" y1="64.18" x2="-139.06" y2="64.18" gradientTransform="translate(513.44 -903.94) scale(1.72 20.78)" xlink:href="#a2166d30-e4f5-4414-abbd-2d872fc81f8b"/><linearGradient id="af56e565-04f0-4655-88b4-4ac78a2844f6" x1="-140.06" y1="64.18" x2="-139.06" y2="64.18" gradientTransform="translate(517.97 -903.94) scale(1.72 20.78)" xlink:href="#a2166d30-e4f5-4414-abbd-2d872fc81f8b"/><linearGradient id="b40369f5-901e-4516-9af1-7f86527019d8" x1="-140.06" y1="64.18" x2="-139.06" y2="64.18" gradientTransform="translate(522.5 -903.94) scale(1.72 20.78)" xlink:href="#a2166d30-e4f5-4414-abbd-2d872fc81f8b"/><linearGradient id="e4b773fa-7125-49a1-8ee4-89c1a55cddd6" x1="-139.12" y1="64.18" x2="-138.12" y2="64.18" gradientTransform="translate(522 -903.94) scale(1.71 20.78)" xlink:href="#a2166d30-e4f5-4414-abbd-2d872fc81f8b"/><linearGradient id="ea61e0eb-8955-4154-97a5-d486b068d05e" x1="-139.12" y1="64.18" x2="-138.12" y2="64.18" gradientTransform="translate(526.53 -903.94) scale(1.71 20.78)" xlink:href="#a2166d30-e4f5-4414-abbd-2d872fc81f8b"/><linearGradient id="efb32ff7-ff7f-4038-8993-fe8e9462f491" x1="-331.04" y1="51.64" x2="-330.04" y2="51.64" gradientTransform="translate(28219.88 305.25) scale(84.59 3.96)" xlink:href="#a2166d30-e4f5-4414-abbd-2d872fc81f8b"/><linearGradient id="bc596ab8-dcd0-4506-bb6c-9bd460993f24" x1="-333.27" y1="67.18" x2="-332.26" y2="67.18" gradientTransform="translate(64353.08 -13101.44) scale(192.61 201.3)" xlink:href="#a2166d30-e4f5-4414-abbd-2d872fc81f8b"/><linearGradient id="acdd7407-3c15-43cb-bf7a-ec3d24dcbb88" x1="-330.75" y1="65.52" x2="-329.75" y2="65.52" gradientTransform="translate(26291.27 -1756.45) scale(78.83 32.16)" xlink:href="#a2166d30-e4f5-4414-abbd-2d872fc81f8b"/><linearGradient id="ae65d676-d680-41e8-bbe1-eba623aa64f8" x1="-320.72" y1="65.91" x2="-319.72" y2="65.91" gradientTransform="translate(7766.87 -2283.87) scale(23.45 41.9)" xlink:href="#a2166d30-e4f5-4414-abbd-2d872fc81f8b"/><linearGradient id="a71269c0-c1b4-4000-83e3-51d3d87b377c" x1="-320.72" y1="65.53" x2="-319.72" y2="65.53" gradientTransform="translate(7766.89 -1786.95) scale(23.45 33.39)" xlink:href="#a2166d30-e4f5-4414-abbd-2d872fc81f8b"/><linearGradient id="b0d69ce7-9920-473a-9f10-57f48f850dc2" x1="-293.8" y1="37.87" x2="-292.8" y2="37.87" gradientTransform="translate(2699.16 318.31) scale(8.13 2.28)" xlink:href="#a2166d30-e4f5-4414-abbd-2d872fc81f8b"/><linearGradient id="b7f19816-4774-441b-97b4-41519845e26f" x1="-332.28" y1="66.87" x2="-331.28" y2="66.87" gradientTransform="translate(41263.61 -7159.22) scale(122.92 113.92)" xlink:href="#a2166d30-e4f5-4414-abbd-2d872fc81f8b"/><linearGradient id="e33ddb36-46ef-41d3-9286-e9d7a79786a3" x1="-334.33" y1="61.04" x2="-333.33" y2="61.04" gradientTransform="translate(167258.45 -65.41) scale(500 10.87)" xlink:href="#a2166d30-e4f5-4414-abbd-2d872fc81f8b"/><linearGradient id="a0e4a336-4d8e-405e-a73f-4ae16397a6d7" x1="-334.23" y1="64.21" x2="-333.23" y2="64.21" gradientTransform="translate(144648.78 -682.38) scale(432.39 20.4)" xlink:href="#a2166d30-e4f5-4414-abbd-2d872fc81f8b"/></defs><path d="M338.77,2,107.41,65V79.72c0,16-48.92,44.68-92.82,60.4L0,145.35V489C0,603.1,58.34,709.8,168.65,797.53c82.48,65.59,164.14,97.32,167.59,98.64l9.84,3.83,9.85-3.78c3.44-1.31,85.09-33.05,167.59-98.65C633.82,709.82,692.13,603.11,692.13,489V145.33l-14.59-5.23c-43.91-15.73-92.82-44.4-92.82-60.4V65L346.08,0Z" transform="translate(-0.02)" style="fill:url(#bfb84d7b-784f-4ea7-aadc-12c9b9e6675f)"/><path d="M339.08,19.14,117.72,79.39V93.48c0,15.31-46.8,42.74-88.8,57.78l-13.94,5V485.07C15,594.23,70.77,696.3,176.31,780.23c78.9,62.75,157,93.1,160.33,94.37l9.44,3.6,9.43-3.62c3.28-1.25,81.4-31.61,160.32-94.37,105.5-83.92,161.25-186,161.25-295.15V156.27l-14-5c-42-15-88.8-42.47-88.8-57.78V79.39L346.08,17.24Z" transform="translate(-0.02)" style="fill:url(#a2166d30-e4f5-4414-abbd-2d872fc81f8b)"/><path d="M339.63,52.3,138.89,108.21v13.07c0,14.21-42.45,39.67-80.54,53.61L45.7,179.54V484.63c0,101.29,50.6,196,146.32,273.87,71.56,58.23,142.42,86.39,145.41,87.57l8.55,3.36,8.55-3.35c3-1.17,73.83-29.34,145.41-87.57,95.72-77.88,146.31-172.59,146.31-273.88V179.55l-12.67-4.65c-38.1-13.9-80.5-39.41-80.5-53.61V108.21L346,50.54Z" transform="translate(-0.02)" style="fill:#1f2e2a"/><path d="M445.24,253.79c-3.31-1.2-5.44,7.45-7.94,1.7a23.53,23.53,0,0,1,9.25-5.08c3.84-23.15.11-37.86-2.63-52.45,0,4-3.62-.62-2.65-3.38-13.67,1.61-8.51-12.88-15.88-16.92,3-10.1-7.88-17-14.56-20.3,1.18-3.56,2.07-7.53,4-10.16-1.87-3.68-7.75-7.84-4-13.53-4.12-4.78-11.77-14.87-5.29-18.62-5.73-2.5-12.89-.31-14.56,0,.74-4.13,5.12-3.6,4-10.15-3.23-4.16-5.74,1.25-10.58,0,2.11-6.66-5.72-.59-5.3-5.08-.39-3.32,1.79-3.35,2.65-5.08-3.8.87-22.67-1.93-18.52-5.07-4.33,2.81-5.88-2.3-9.27-5.07a2,2,0,0,1-2.19,1.79,2.42,2.42,0,0,1-.45-.1c-.52,2.91,2,4.34,0,5.08-1.13-5-4.27,1-6.62,0-.51-2.42-1.59-2.86,0-5.08-3.16,5-6.72-.56-10.58,0-.76.11-1.69,3.1-4,3.38-9.49,1.19-14.32,7.18-21.17,16.93.07-2.17,1.69-2.35,1.32-5.08-3.18-.69-2.88,3.09-6.62,1.69-1.63,5.49,4.29,1.3,2.65,6.77-3,3.56-6.09-2.55-7.94,3.39-.3-3.2,1.49-3.73,1.32-6.77-3.87,1.52-4.06,1.52-7.94,0,1,5.77-4.88,2.8-5.29,6.77,4.46,4.34,6.29,5.52,8.18,2.26-.07-.5.21-1.19,1.08-2.26a18.73,18.73,0,0,1-1.08,2.26c.2,1.52,3.65,1.23,3.73,4.51-1.75,0-1.21,3-2.65,3.38.81-3.92-1.3-2.68-2.23-2,.18.37.09.55-.42.32l.42-.32c-.72-1.49-6-6.15-7,.32,3.08.56,5.7,1.73,6.61,5.08-2.79-3.73-3.9,2.16-7.93,1.69-.21-2,.23-4.8-1.33-5.07-1.91,6.3-1.76,4.27-4,0-.13,2.65.18,5.86-2.65,5.07,3.47,6.91,1.68,13.67-2.65,18.61,2.63,0,1.69,4.62,5.3,3.38,1.26-3.15-4-5.65,0-6.77-.91,4.55,2.73,3.28,4,5.08a14.13,14.13,0,0,1,5.29-6.76c2.76,3.71,4.29-1.48,6.62,1.69-3.67,2.53,2.3,6.92-1.32,8.46-1.25-7.89-2,2-2.65,1.7-1.29-1.73-2.62-3.43-4-5.07-1.82,3.86,3.41,6.36,0,6.77-2.75-2.71-6.84-5.33-4,1.69a5.4,5.4,0,0,0-4,1.69c.17-4.23,2.53-5.29-1.32-6.77-2,5.63-5.53-6.69-6.62,1.7,4.15-.8,5.41,2.11,6.62,5.07-2.81,3.39-5.9-2.4-9.27-3.38,3.42,7.07-2.9,4.64-5.29,8.46,2.63,5.59,5.65-4.19,6.62,0-2.45,3.26-2.43,1.34-1.33,6.77-1.33,0-1.57-1.37-2.64-1.69-1.16,5.43,3.43,3.5,4,6.76-2.89,1.08-4.21-4.8-4,1.69,3.46-.47,5.68.62,5.28,5.07-5.16,2.35,1.38,4.8-1.32,6.77-3.65.72-1.24-6.31-4-6.77-2.83,3.46.37,6.7,1.31,10.16-3.3-1.22-5.43,7.44-7.93,1.69,2.53-.72,5.69-.62,5.29-5.07-2.5.37-2.92-1.91-5.29-1.7.06,9.75-1.21.55-4,0-.79,3,3.87,7,0,8.46.62-3.29-3.56-8.65-4-5.08,2.56,2.93,3.77,7.58,6.61,10.16-4.13,1.72-4.34-3.06-7.94,3.38-.3-3.19,1.49-3.73,1.33-6.76-7.42.41,1.36,13.93,2.64,8.46-5-1,5.16-4,4,0-5.53-2.56-2,6.94-2.64,8.46,0,0-2-.83-2.65,0-4.41,5.65,2.91-.71,2.65,3.39-2,2-5.42,2.11-6.62,5.08.8.09,1.56.25,1.32,1.69,1.33,0,1.58,1.37,2.65,1.69.2-2-.23-4.8,1.32-5.08-.14,5.83,4.56,5.45,5.3,10.16-4.88-6-1.68,7.81-7.94,5.08.56-3.23,2.84-4.25,2.64-8.47-4.51.32-6.4,9.58-10.58,5.08,2.39,6.09-.24,5-1.32,10.16,2.21,2.81,5.35,4.43,5.29,10.14-2.54-4.69-7.49-1.77-9.27,3.39a5.5,5.5,0,0,1,4,1.69c1.41-1.57.41-6.24,4-5.08-1.15,6.56,2.22,7.33,4,10.16,2.4-1.45,3.65-4.36,6.62-5.07,0,1.69,1.07,2,1.32,3.38-3.28-.25-5.49.88-6.61,3.39,4.39-.54,5,3.76,7.94,5.08-3.07,1.32-5.95-.58-7.94,5.07,1.39-5.94-4.46-1.41-5.3,0,1.67.69,2.71,2.18,2.65,5.07-3.42.15-1.4,7.25-6.62,5.08,3.52-2.33-2.55-6.6-2.65-3.38,2.33,5.17-7,.75-6.62,10.15,5.56.62,10,4.46,9.27,8.46.36-1.55,5.86-4.5,5.29-1.7v3.39c-2.55-3-3.26-.39-4.44,2.11a3.8,3.8,0,0,1,.47-.43,13.41,13.41,0,0,1,4,0,1.17,1.17,0,0,1,.26,1.28,15.09,15.09,0,0,0,2.39-4.65c-1.8,8.85,3.14,4.78,4,6.75-1.75,0-1.21,3-2.65,3.39-4.39-3.91-5.9,6.66-10.58,0-.57,3.23-2.85,4.24-2.65,8.46,2.46,1.62,4.42-5.07,5.29,0-5.74,2.74,1.46,2.1,0,8.46,2.08.16,4.59-.23,4,3.38,5.12,1.47,4.71-4.13,7.94-5.07-.57,3.22-3.78,3.06-2.65,8.45,11.49,6.11,17.93,10.35,25.15,8.46-3.44,6.74-7,11.78-6.62,16.93.19-3.78,3.33,2.2,6.62,0,1.13-3.95-4.63-7.3-1.33-8.47,5.8-1.23-1.06,3.37,2.65,3.38-.42-3,7.41-3,5.29,1.7-3.61.15-2.67-2.82-5.29,0,1.09,4.78-1.87,4.38-1.32,8.46,5.79-1.24-1.08,3.36,2.64,3.38.76-4.1,5-3.76,7.94-5.08.52,2.42,1.59,2.86,0,5.08,2.6.51,2.62-2.28,4-3.38,3.25,2.26-2.38,5.11,1.33,6.77.54-2.13,1.71-3.46,4-3.39,2.34,5.31,7.18,1.6,10.58,3.39,2.68,1.4,15.7,30.71,17.21,42.29,4.35,33.42-1.13,70.28-2.65,98.14-2.74-1-8.69,2.09-9.26-1.7.71-3.54,2.32-6.35-1.32-8.46-2.33,2.67-1.74,9.07-4,11.84-4.81,1.18-11.4.09-13.23,5.09,4.59-1.37,5.09,2.51,9.26,1.69,1.42-1.57.41-6.24,4-5.08-.32,2.41-2.18,2.86-2.65,5.08,16-3.24,57.14,6.92,64.84-6.77-12.63-.83-11.86-1-25.13-1.69-5.16-13.48-1.89-41-2.65-60.91-1.42-37.22-6.5-82.46,13.24-98.14,3.06,1.36,7.5,5.42,10.58,1.69-.08,2.17-1.7,2.35-1.32,5.09,5.14-6.41,12.73-8.15,21.17-6.77-.06-6.27,5-6.07,6.62-10.16-.83,9.82,5,6,7.94,3.38v6.77h4c3.73-2.54-3.35-7.12,0-8.46,5,4.69,6.5-6.72,10.6-8.46.32,3,2.28,3.86,5.29,3.38,3.18-7.48,6.66-11.51,0-15.22,4,1.7,2.34-3.77,2.64-6.77-5.53,2.52-2.31-3-7-3.37a1.17,1.17,0,0,1-1,0,5.57,5.57,0,0,1,1,0c1.63-.88-1.48-7.84,1.68-6.78.11,6.89,7.61-4.33,11.9,1.71,2.24-6.74,9.53-7,10.59-15.23-5.09-5.94,1.24-7.24-1.32-15.23,4.29-.79,5.75-5.54,9.26-8.46,3.33-2.78,11-2.35,10.59-10.16C452.3,260.35,449.08,258,445.24,253.79Zm-198.49-8.46c-1.55-.27-1.12-3.08-1.33-5.07,2.26-.63,2.5,1.32,2.65,3.38-1.12-.31-1.25.66-1.32,1.69Zm-1.33,44C242.3,294.77,240.07,283.38,245.42,289.33Zm1.33,30.46C252.81,320.92,245.68,330,246.75,319.79ZM430.69,211.5h2.64v5.07a5.4,5.4,0,0,0-4-1.69C429.61,213.51,430.69,213.19,430.69,211.5ZM264,274.1c-3.08-2.54-2-4.14-1.33-8.46,1.13-.32,1.25.66,1.33,1.69,2.38.22,2.79-2.07,5.29-1.69C267.73,271.89,262.92,267.52,264,274.1Zm0,6.76c-.73-3.75,2.53-2.41,2.65-5.08,3.29.7.07,6.57-2.65,5.08Zm4-37.22c4.39,1.65-1.47,3.35-1.31,5.08-3.88-.95,2-2.64,1.27-5.08Zm6.62-52.45c-3.57-1.51.61-6.87,4-5.08,2,6-4.56,1-4,5.08Zm22.51-25.38c-2.34-.51-.29-2.11,1.75-2.92-.09.16-.19.33-.26.48-.44.79-.82,1.53-1.19,2.27Zm-12,148.89c1.55,0,1.87,1.6,2.6,2.66l-2.35.4A8.53,8.53,0,0,1,285.08,314.7Zm6.62,1.69a2.09,2.09,0,0,1,2.48-1.61l.18.05c-.16.5-.32,1-.49,1.48l-1.94.33a1.27,1.27,0,0,0-.19-.25Zm40.93-212.63-1.29-.66a9.15,9.15,0,0,1,1.38.1,1.75,1.75,0,0,1-.05.56Zm-31.86,42.05a5.67,5.67,0,0,1,1.64,2c-5.26,2.29-5.16-.72-1.6-2Zm-19,189.25.39.21C281.53,335.59,281.22,335.61,281.74,335.06Zm137-154c3.23,3.55,2.82,2.42,7.95,1.69-.22,2,.28,3,1.32,3.38-2.72,7.7-9.1-7.9-9.26,1.7-3,1-4.28-.16-5.33-1.62-.08-.92-.13-1.84-.18-2.77,2.17.56,6.47,3.56,5.53-2.44Zm-17.16-37.24c3-.52,1.47,4.89,4,5.07-.2,2.65-2.77-1.07-4.31-1.41-.45-.65-.89-1.3-1.36-1.93A2,2,0,0,0,401.58,143.82ZM361.87,94.75h2.65v3.39h-2.65ZM306,122.15a28.88,28.88,0,0,1-.06,4.92c-3.87,2.09-5.1-6.34-6.27-1.88C296.78,118.57,304.42,123,306,122.15Zm-16.93,8.13c1.9,2.08,2.51,5.81,2.64,10.15C289.08,137.76,288.23,134.38,289.08,130.28Zm4,0c1.12.31,1.25-.66,1.33-1.7,1.6.44,1.6,2.92,2.44,4.33a3.29,3.29,0,0,0-1.25,1,8.3,8.3,0,0,0-.67,1C294.79,133.33,294.57,131.26,293.08,130.28Zm6.62,25.38c-.58,2.08-1.7,3.47-4,3.38.59-2,1.71-3.47,4-3.38ZM289.08,169.2h2.64v3.38h-2.64Zm-6.62,13.53C288.2,183.43,281.07,192.55,282.46,182.73Zm-2.64,0c-2.27-2.92-5.2,2.49-5.29-5.07,1,2.69,6.49-.39,5.3,5.07Zm-5.3-11.84C271.4,176.33,269.17,164.94,274.52,170.89Zm-7.93,25.38c.45-2,3.51-1.37,4,0,1.18,3.66-4.87,3.92-4,0Zm-4,5.07c2-6,2.51,3.12,1.33,3.39-.75.17-1.63-2.38-1.3-3.39ZM257.33,220c4.36,3.83,5,3.47,6.62-3.38,1,8.15,5.37-3.4,6.62-3.39s3.51,7,4-1.69a32.77,32.77,0,0,0,3.37.89,20.35,20.35,0,0,0-1.07,4,21.19,21.19,0,0,0-2.3.21c-.73,2.59-6.09,13-6.62,5.08-1.74.6-2.08,3-4,3.38,0,1.65,1.62,1.31,2.65,1.69C264.15,234.39,258.39,224.48,257.33,220Zm-4,27.08c-1.07-.33-1.32-1.7-2.64-1.7.73-4,6.29-1.08,2.67,1.62Zm2.65,6.76c-3.12-4.14-2.46,2.53-6.62,1.7,1.7-2.9,2.73-6.66,6.62-6.77ZM256,242h-2.65v-3.38H256Zm1.32,1.7c0-1.65,1.62-1.32,2.65-1.7,1-5.2-3.64-3.25-2.65-8.45,1.91,1.88,3.23,1.82,4-1.7,5.18,1.6-6.46,6.66,1.32,6.77.4,4.39-1.82,5.51-5.29,5ZM256,274.15h2.64v3.38H256ZM249.36,286c.86-1.72,3-1.75,2.65-5.08h4c-1.21,2.92-2.46,5.83-6.62,5Zm7.94,35.52c-2.76-.48,2-4.57-2.65-5.07-3.17-.66.74,7.7-4,5.07.24-4.75,2.3-7.2,6.62-6.76-.06,4.56,2.27,3.36.06,6.71Zm5.29-27.06c-.58,2.08-1.69,3.48-4,3.38-.51-3.66,2-3.26,4-3.43ZM264,313C257.7,310.36,262.19,304.61,264,313Zm1.32,8.45c-5.09,1.34-5.09-8.1,0-6.76-2.19,3.37.12,2.17,0,6.77Zm3.38-38.83c-.09.58-.18,1.16-.24,1.72a3.34,3.34,0,0,1-3.14,1.58c.52-1.86,1.53-3.11,3.38-3.29Zm-.74,43.92c-5.11-3.93,1.59-2,1.33,0-.33,2.57-1.16.16-1.33,0Zm9.59,5.68,1,.78a10.55,10.55,0,0,0-1.33,3.69c-2.68-1.54-1-2.77.33-4.46Zm-.32,7.85c1.3-2.72,3.53-3.9,5.29-1.69-1.15,4.94-2,1.92-5.29,1.7Zm14.56,11.84c-1-2.65-4.19-2.53-4-6.76-1.18.76-2.37,1.49-2.65,3.38,1.3,1.73,2.61,3.43,4,5.08-1.16,1.37-9.66-2.23-10.59-6.77,8.07,3.33,1.78-.52,4-5.07,4.07,1.17,2.55,1.17,6.62,0,.73,3.54,3.26,4.83,2.62,10.15Zm0-8.45a7.34,7.34,0,0,1,.78-4.09q1.17.36,2.31.66c.06,1.76.58,3.22,2.2,3.43-.87,5.08-2.82-1.61-5.29,0Zm1.32,5.07C298,344.31,300.32,355.78,293.06,348.53Zm5.37-7.58.2.05c0,.42,0,.5-.2,0Zm5.22,22.8a15.69,15.69,0,0,1,0-1.68c1.43-4.91-1.87,13.4,0,1.69Zm7.94-3.37c3.86,1.52.38,6.22,2.65,6.76-3.54,4.24-3.89-1.78-2.65-6.75Zm11.91,10.15c.58,2.51,1.7-.67,4,0v20.3c-8.89-3.29-8.86-18-10.59-30.45,1.18-.76,2.36-1.49,2.65-3.39a.85.85,0,0,1,0,1.7c1.14,4.92,2,1.9,5.29,1.7.22,4.67-2,5.8-4,3.37.91,5.32,3.53,2.21,6.62,1.7,2,6-4.5,1-4,5.08Zm41.46-31,.7-.09c.91-.11,1.82-.21,2.72-.33-.42,1.89-2.07,1.29-3.42.47Zm67.84-75.69c.19-2.58.32-4.22.57-5.71a13.88,13.88,0,0,1,1.29-1c-.17,4.2-1,6.15-1.86,6.76Z" transform="translate(-0.02)" style="fill:url(#aad2f0ee-e306-4b12-a7cc-566f7a46094b)"/><path d="M373.08,507.27a26.56,26.56,0,0,0-7.17-.55,39.08,39.08,0,0,0-5.5.63,34.79,34.79,0,0,0-7.53,2.21,1.67,1.67,0,0,1-.73.14c-1.11,0-2.21.08-3.3.16h-.36a.06.06,0,0,1,0-.06l.16-.18a38.32,38.32,0,0,1,5.65-5.07c.87-.64,1.83-1.27,2.74-1.9a1.34,1.34,0,0,1,.58-.2l.93-.17a54.27,54.27,0,0,1,6.73-.84c.83-.05,1.67-.09,2.51-.06.68,0,1.36.07,2,.11h-.1a23,23,0,0,0-4.61-.22,74.62,74.62,0,0,0-7.61.8,50.86,50.86,0,0,0-10.39,2.61c-1.25.49-2.39,1-3.57,1.51a18.91,18.91,0,0,0-4.34,2.54,16,16,0,0,0-3.41,3.66.4.4,0,0,1-.24.18,25.79,25.79,0,0,0-3.48,1.55l-.16.06A.24.24,0,0,1,332,514c.53-.62,1-1.23,1.57-1.84a31.25,31.25,0,0,1,5.87-5.08,49.83,49.83,0,0,1,4.92-2.93.23.23,0,0,0,.2-.16,78.12,78.12,0,0,0-9,3.41,49.81,49.81,0,0,0-6.93,3.93,19.23,19.23,0,0,1,2.62-3.14c1-1,2.21-2,3.43-3a42.61,42.61,0,0,0-9.31,6.74v-.06a14.47,14.47,0,0,1,1.18-2.52,17.35,17.35,0,0,1,2-2.82l.87-1c.05,0,.08-.1.31-.09-.18-.09-.07-.16,0-.24a32.77,32.77,0,0,1,5-4.1l.18-.13h-.07c-1.31.58-2.51,1.18-3.61,1.8a31.35,31.35,0,0,0-3,1.94h-.13l-1.67-.71c-.17-.06-.17-.11-.12-.19.54-.69,1.08-1.39,1.6-2.09a.92.92,0,0,1,.55-.22c2.8-.48,5.69-.87,8.66-1.2,4-.44,8.05-.75,12.18-1l.94-.06H348.6c-2.49,0-5,.08-7.44.19-4,.17-7.83.46-11.6.93h-.35l.14-.14L331,499a8.7,8.7,0,0,1,2-1,46.32,46.32,0,0,1,10.45-2.39,79.25,79.25,0,0,1,10.67-.6c2.13,0,4.22.1,6.29.29a42.79,42.79,0,0,1,9.9,1.9h.15a.92.92,0,0,0-.3-.18,23.29,23.29,0,0,0-4.14-1.35,55.64,55.64,0,0,0-14.38-1.34,53.92,53.92,0,0,0-5.81.46q-2.31.33-4.56.69a33.89,33.89,0,0,0-8.66,2.46,19.7,19.7,0,0,0-4.1,2.37,1.11,1.11,0,0,1-.43.15l-3.25.49h-.32a14.61,14.61,0,0,1,1.47-2.18c.56-.71,1.19-1.42,1.79-2.13h-.08l-.3.22a28.28,28.28,0,0,0-4.38,4.23.77.77,0,0,1-.5.22c-.83.16-1.65.34-2.46.52a2,2,0,0,1-.84,0,49.78,49.78,0,0,0-7.61-.64A1.42,1.42,0,0,1,311,501c-.73-.4-1.5-.8-2.25-1.2l-.25-.12c.48.49,1.05,1,1.53,1.46a48.68,48.68,0,0,0-5.39.4l-.39-.21h-.05c.07.08.14.15.19.22l-3.11.58-2.44-1.69h.39q5.28-.9,11-1.4,7.14-.63,14.5-.68a1.85,1.85,0,0,0,.47,0,75.61,75.61,0,0,0-8.5-.64A85,85,0,0,0,297,499.47h-.14l-.2-.12c-1.76-1-3.67-2-5.76-3l-.2-.07a1,1,0,0,0,.28.25,46.92,46.92,0,0,1,4.12,3.21c.17.14.17.14-.19.24-1.05.28-2,.58-3,.91-1.17.41-2.19.86-3.22,1.31l-.33.13a36.32,36.32,0,0,0-6.9-2.23c.68-.53,1.42-1.05,2.14-1.56-.54.22-1,.44-1.52.67l-1.41.7c-.86-.13-1.66-.27-2.5-.39a21.08,21.08,0,0,0-2.63-.25c-.89,0-1.77-.06-2.69-.09a17.12,17.12,0,0,1,1.59-2.45c.64-.8,1.33-1.59,2-2.4l-.19.14a28.29,28.29,0,0,0-2.87,2.49c-.68.71-1.31,1.43-1.93,2.14-.11.13-.28.19-.67.22a17.58,17.58,0,0,0-1.78.17h-.28c.79,0,1.57-.07,2.38,0-.38.55-.75,1.08-1.09,1.61s-.62,1.06-.93,1.6c-.2-.32-.38-.66-.55-1a14.67,14.67,0,0,0-1.48-2.18,13.38,13.38,0,0,0-3.17-3.2,21.84,21.84,0,0,0-5.61-2.86c-.49-.17-1-.34-1.43-.52a14.73,14.73,0,0,0-3.52-.86,29.92,29.92,0,0,0-5.27-.08,17.16,17.16,0,0,0-7.25,1.65l-.17.12h.1l.24-.08a17.92,17.92,0,0,1,3.55-.81,33.44,33.44,0,0,1,5.92-.23,29.87,29.87,0,0,1,6.65,1,25.26,25.26,0,0,1,4.24,1.54,9.76,9.76,0,0,1,1.35.73,11.27,11.27,0,0,1,3,3,13.58,13.58,0,0,1,1.51,2.81c.22.56.38,1.13.54,1.69a10,10,0,0,1,.22,1.09,2.76,2.76,0,0,1,0,.81c0,.37-.18.74-.27,1.12l-.06.22h-.09l-.14-.19a32,32,0,0,0-4.21-5,30.23,30.23,0,0,0-4.95-3.77l-.32-.19a3,3,0,0,0,.36.62,26,26,0,0,1,2.17,3.85c.32.75.6,1.49.9,2.24.07.2.12.41.19.61s-.06.12-.27.15l-1.51.19h-.29l-.12-.12a23.08,23.08,0,0,0-2.56-2.67c-.1-.09-.07-.15.14-.22l1.65-.52.33-.11h-.06l-2.55.44a27.82,27.82,0,0,0-3.6-2.59,37,37,0,0,1,2.68,2.78l-2.42.53-.16-.1-2.1-1.67a47.9,47.9,0,0,0-5.41-3.65,62.93,62.93,0,0,0-5.76-3l-.28-.12a.16.16,0,0,0,.07.13c1.33.91,2.49,1.85,3.65,2.79a37.18,37.18,0,0,1,4.58,4.38c.59.67,1.15,1.35,1.73,2,.1.1,0,.17-.21.24l-3,1-.39.12a23.68,23.68,0,0,0-5.3-3.86l1.74-.55c-.36.06-.67.13-1,.21l-.94.24c-4.55-2.43-10.68-4.19-17.94-5.51a1.73,1.73,0,0,0,.32.11c3.84,1.24,7.62,2.51,11.08,3.88,1.55.62,3,1.26,4.43,1.92l.22.12-2.87.92c-1-.24-2-.46-3.1-.63l2.64.78a9.58,9.58,0,0,1-1.06.39l-.24-.16a20.76,20.76,0,0,0-2.19-1.39,21.37,21.37,0,0,0-4.28-1.78,28.43,28.43,0,0,0-4.92-1,24.32,24.32,0,0,0-4.35-.16l-1,.07-3.47-2c1.94-.35,3.94-.63,6-.87h-.44c-2.13,0-4.23.06-6.31.23a1.41,1.41,0,0,1-.72-.1l-1.76-.85-.19-.08h0l1.66,1.09-.44.06-1,.11a52.06,52.06,0,0,0-10.69,2.27,23.89,23.89,0,0,0-3.5,1.49l-.29.13-.16-.08-1.92-1a26,26,0,0,0-7.08-2.29,33.84,33.84,0,0,0-6.35-.63,26,26,0,0,0-4.32.33l-.47.09h.35c.75-.07,1.51-.11,2.29-.11a19.13,19.13,0,0,1,2.74.13,46.55,46.55,0,0,1,5.12.79,27.79,27.79,0,0,1,8.88,3.06c.17.1.2.18,0,.29a10.76,10.76,0,0,0-1.75,1.33,5.7,5.7,0,0,0-1.12,1.37c-.25.51-.46,1-.7,1.53l-.11.12-.34-.14c-.72-.29-1.43-.58-2.17-.86a1.51,1.51,0,0,1-.53-.32,28.3,28.3,0,0,0-4.89-3.9l-.23-.13c.35.38.76.76,1.14,1.13s.76.78,1.11,1.16a7.31,7.31,0,0,1,.93,1.15,2.33,2.33,0,0,1-.36-.08l-3.7-1.1a1.77,1.77,0,0,1-.49-.21,43.66,43.66,0,0,0-4-2.87,61.38,61.38,0,0,0-7.94-4.29l-.18-.07c0,.06.06.1.13.14,1.35,1,2.62,1.94,3.82,2.93a47.38,47.38,0,0,1,5.26,5.15,17.48,17.48,0,0,1,2.36,3.31c.42.81.81,1.63,1.14,2.45a21,21,0,0,1,.62,2.09c.09.32.13.63.19.94a.11.11,0,0,1,0,.08c-.09,0-.11,0-.13-.07a16.9,16.9,0,0,0-1.77-1.72,23.06,23.06,0,0,0-2.83-2.07,1.19,1.19,0,0,1-.37-.3,12.81,12.81,0,0,0-2.54-3,22.73,22.73,0,0,0-6.6-4,43.22,43.22,0,0,0-9.55-2.57,42,42,0,0,0-8-.49,37.82,37.82,0,0,0-6,.64l-.43.09h1.85c2,0,3.93,0,5.86.15,6.78.48,12.32,1.67,16.58,3.57.72.32,1.29.68,2,1A18.92,18.92,0,0,1,176,506a.76.76,0,0,1,.11.14h0l-.26-.13a39.47,39.47,0,0,0-5.62-2.35,55.67,55.67,0,0,0-7.07-1.85l-.37-.06a1,1,0,0,0,.28.11c1.31.36,2.55.75,3.72,1.16a35.27,35.27,0,0,1,8.54,4.24,27.27,27.27,0,0,1,2.62,2.18.42.42,0,0,1,.09.14c.17.47.33.93.49,1.39a1.83,1.83,0,0,0,.09.39h-.1l-.21-.13a30.4,30.4,0,0,0-7.57-3.65.8.8,0,0,1-.32-.19,16.86,16.86,0,0,0-2-1.67,14.46,14.46,0,0,0-2.53-1.46,15.31,15.31,0,0,0-4.51-1.12,17.91,17.91,0,0,0-2.74-.06,19.47,19.47,0,0,0-3.23.45,1,1,0,0,1-.76,0c-1.76-.43-3.61-.81-5.55-1.12h-.37c1,.23,2,.43,3,.66a19.45,19.45,0,0,1,2.71.76l-.14.06a9.39,9.39,0,0,0-2.27,1,1.57,1.57,0,0,1-.49.27,6.8,6.8,0,0,1-.9.06,55.91,55.91,0,0,0-9.54,1.34l-.24.07a87.67,87.67,0,0,1,9.59-.23c-.07.25-.15.48-.21.72l-4.54-.26a.81.81,0,0,0,.31.06l3.85.43c.4,0,.38,0,.41.2s.1.4.15.61c.06-.24-.09-.47,0-.73,2.66.34,5.19.74,7.68,1.24a15.6,15.6,0,0,0-6.08,2.22l-.42-.09c-.71-.13-1.39-.28-2.12-.4a36.75,36.75,0,0,0-7.18-.49,22.92,22.92,0,0,0-4.13.47l-.6.13a.92.92,0,0,0,.33,0,22,22,0,0,1,2.28-.21,32,32,0,0,1,3.92.11,63.41,63.41,0,0,1,7,1l.24.06c-.13.21-.28.41-.39.62a.65.65,0,0,0-.1.63,11.89,11.89,0,0,1,1.86-1c.33.09.61.18.91.25a28.16,28.16,0,0,1,5.56,2,4.22,4.22,0,0,1,.66.36c.35.29.68.59,1,.91a11.35,11.35,0,0,1,1.78,2.46,12.77,12.77,0,0,1,1.44,3.72.88.88,0,0,0,.1.3h.73c-7.7,1.39-12.08,3.09-12.08,5.11h205.4c0-2-4.45-3.74-12.28-5.14V521a9.53,9.53,0,0,1,.13-1.31c.18-.78.4-1.56.64-2.34a12.34,12.34,0,0,1,1.56-3.15,11.41,11.41,0,0,1,1.9-2.31,1.76,1.76,0,0,1,.34-.27,29,29,0,0,1,3.07-1.5,3,3,0,0,1,1.29-.1l1,.15c3.6.48,6.16,1.35,7.81,2.55a5.45,5.45,0,0,1,1.78,2.06l.15.25a2,2,0,0,0,.34-.12,7.49,7.49,0,0,0,.89-.46c.73-.52,1-1.07.87-1.65-.18-.81-1.27-1.46-3-2a20.39,20.39,0,0,0-4.18-.77,42.54,42.54,0,0,0-5.05-.17h-1.19l.33-.14c.79-.29,1.66-.56,2.59-.8a56.2,56.2,0,0,1,10.06-1.59,29.3,29.3,0,0,1,4.19,0c.65.06,1.28.14,1.92.21A2.55,2.55,0,0,0,373.08,507.27Zm-34.66,4c.42-.6.82-1.2,1.26-1.81a11.3,11.3,0,0,1,3.86-2.81,43,43,0,0,1,10-3.3l2.46-.52.33-.06c0,.07-.13.1-.22.15a67.42,67.42,0,0,0-6.77,3.72,39.8,39.8,0,0,0-5,3.66,1.09,1.09,0,0,1-.57.22,45.57,45.57,0,0,0-5.16,1.11l-.36.1h-.09Zm-1.34,5.08a14.56,14.56,0,0,1,3.92-3.1l.4-.21h.14a24,24,0,0,0-2.59,3.58,16,16,0,0,0-1.65,3.62h-.09c0-.3-.1-.59-.12-.88-.07-.84-.1-1.69-.19-2.53A.57.57,0,0,1,337.08,516.35Zm-10.42-12.09-.06-.1.2.06c.37.14.72.29,1.11.43.2.07.2.13.08.22a20.68,20.68,0,0,0-2.49,2.18c-.38.39-.72.79-1.07,1.19l-.16.18h-.11c.16-.49.3-1,.48-1.45s.38-1,.6-1.44a10.2,10.2,0,0,1,.81-1.44,2.72,2.72,0,0,1,.62.17Zm-2.9-1.8c0-.06.08-.1.23-.13l2.86-.56H327c-.54.62-1.18,1.2-1.77,1.81l-.25-.07-1.26-.43c-.18-.06-.24-.11-.18-.19a2.11,2.11,0,0,0,.2-.43Zm-.33.75,1.58.46c.14,0,.1.1.06.15-.21.27-.43.54-.62.81s-.55.81-.8,1.21c-.06.09-.17.15-.44.17l-.72.08a15.42,15.42,0,0,1,.95-2.88ZM322.17,508c.08-.5.17-1,.23-1.49,0-.08.1-.13.31-.17l.6-.13h.08c-.39.64-.78,1.28-1.16,1.92h-.06Zm-.37-5.15c0,.06-.05.11-.08.16A17,17,0,0,0,320,506.3c-.06.14-.2.22-.57.27s-.73.13-1.09.19l-.43.07c-.4-.41-.77-.83-1.16-1.23s-.83-.81-1.25-1.2C316.08,504.14,321.2,502.89,321.8,502.85Zm-2.17,4.24c-.15.49-.3,1-.44,1.43h-.05l-.1-.09c-.2-.29-.4-.58-.62-.87-.07-.1,0-.16.21-.21s.61-.18,1-.26Zm-1-4.78-4.2,1.2L312,501.8a56.23,56.23,0,0,1,6.61.51Zm-25.23,6.13c.16.08.19.14.07.24-.39.29-.75.58-1.12.87-.07.07-.15.11-.38.12l-2.52.05h-.16a10,10,0,0,1,1.93-2.33l.27.11Zm-1.58-1.65.4-.32a5.71,5.71,0,0,1,1.15.87Zm2.18,5.53a16.14,16.14,0,0,1,1.7-2.07.08.08,0,0,1,.08.07,5.45,5.45,0,0,1,.71,1.95.34.34,0,0,1-.16.24,41.47,41.47,0,0,0-3.51,2.84c-.22.21-.39.42-.58.63l-.07.07a10.66,10.66,0,0,1,1.8-3.73Zm-3.92-5.26a25.26,25.26,0,0,0-3.3,2.81.56.56,0,0,1-.35.15,17.55,17.55,0,0,0-4.33,1.16,13.43,13.43,0,0,0-2.39,1.29l-.27.16h-.11v-.08a19.74,19.74,0,0,1,2.58-4.73,15.69,15.69,0,0,1,2.64-2.7l.19-.14h.1l.26.06c1.76.57,3.4,1.18,4.94,1.82C290.15,506.92,290.17,507,290.08,507.06Zm-4,10.16.06-.31c.11-.47.19-.94.32-1.41a13.65,13.65,0,0,1,.46-1.41c.28-.67.62-1.35.91-2a.63.63,0,0,1,.34-.3,11,11,0,0,1,2-.77l.5-.13h.08a.86.86,0,0,0-.13.14c-.53.53-1.11,1.06-1.59,1.6a12.76,12.76,0,0,0-2.42,3.65c-.13.32-.24.63-.36,1Zm10.68-6.63h.09l.58.45c.15.12.38.24.37.35s-.26.24-.42.35L297,512h-.08c-.06-.49-.1-1-.15-1.44Zm2.4,4,.61-1h.1a.61.61,0,0,1,.12.16c.08.14.17.28.26.42s0,.2-.29.27-.47.13-.71.2Zm8.84-8.47a11.4,11.4,0,0,1-1.4.57h-.17a1.22,1.22,0,0,1-.17-.15,32.09,32.09,0,0,0-2.68-2.4c-.12-.09-.13-.17,0-.26.56-.27,1.11-.55,1.65-.83l.31-.13.16.14a30,30,0,0,1,2.38,2.77c.1.17.06.23-.1.31Zm.51.29c.16.22.31.42.43.62.34.55.67,1.11,1,1.67.08.13,0,.22-.27.31l-1,.34-.12-.12-1.67-2c-.07-.09,0-.16.08-.25a6,6,0,0,1,1.53-.55Zm-4.93,4.43h-.09l-.62-.18-.68-.19.83-.77h.14Zm6.9,1.52c-.24-.43-.46-.86-.71-1.28,0-.09,0-.16.11-.23l.63-.36.26-.11a18,18,0,0,1,.78,2l-.95.1a.71.71,0,0,1-.14-.1Zm-.7-6.36,3.19-.94a.49.49,0,0,1,.12.13c.36.71.74,1.42,1.08,2.13.16.35.23.25-.57.47l-1.57.44-.35.09C311.08,507.58,310.42,506.81,309.78,506Zm2.85,3.42,1.65-.68.28-.08a8.65,8.65,0,0,1,.57,3.41l-1.36.1-.18-.35c-.36-.72-.73-1.45-1.11-2.17,0-.06,0-.13.15-.2Zm2.51,3v.16a22.77,22.77,0,0,1-.08,2.33c0,.3-.05.6-.07.9v.11h0c-.33-1.12-.67-2.24-1-3.38ZM306.25,502c1.24-.11,2.5-.18,3.78-.19.38,0,.38,0,.51.12a21.23,21.23,0,0,1,1.83,2.19c.06.08,0,.13-.12.19l-2.81,1.14-.13.09-.19-.14a26.87,26.87,0,0,0-2.94-2.49c-.14-.1-.14-.18.08-.26a2.44,2.44,0,0,0,.44-.19h-.07l-.7.21a2.81,2.81,0,0,1-.79-.53Zm-1.48.18c.06.06.14.11.2.18l.38.37q.11.09-.09.15l-2.18.76h-.15c-.5-.32-.88-.66-1.32-1A30.44,30.44,0,0,1,304.77,502.18Zm-4,3.53.16.16c.41.61.81,1.22,1.2,1.82.15.24.26.47.39.7.05.07,0,.14-.08.21l-2.5,1.44-.13.06a1.23,1.23,0,0,1-.65-.13c-.65-.34-1.32-.68-2-1-.17-.08-.19-.14-.09-.24a24.16,24.16,0,0,1,3.37-2.78Zm-2-2.36.14.08c.39.43.78.86,1.16,1.3.07.07.05.12-.09.19a30.6,30.6,0,0,0-4.5,2.36l-.18.1-.13-.11-1.55-1.56c-.08-.08-.1-.14,0-.22a21.4,21.4,0,0,1,4.9-2.09Zm-2.19-2.24c.08.06.15.1.19.14.57.57,1.14,1.15,1.73,1.72.09.1,0,.15-.16.22a39.19,39.19,0,0,0-5,2l-.23.09a22.11,22.11,0,0,0-3.67-2.37,62.09,62.09,0,0,1,7.12-1.8Zm-9.27,2.46.24.1a43.85,43.85,0,0,1,4,2.28c.1.07.12.13,0,.2l-.55.34h-.25c-1.82-.57-3.72-1.1-5.75-1.59a.75.75,0,0,1,.16-.15c.23-.17.49-.33.69-.51a4.18,4.18,0,0,1,1.36-.61Zm-.58-.31-.22.12-1.62.9-.62.32a.62.62,0,0,1-.38,0c.23.07.06.12,0,.17l-1.55.9a22.58,22.58,0,0,0-4.08,3.2c-.73.73-1.39,1.46-2.07,2.19a.59.59,0,0,1-.18.13,25.79,25.79,0,0,1,7.48-8.41,55.61,55.61,0,0,0-5.24,3.3,33.84,33.84,0,0,0-4.14,3.51c-.08-.41,1.36-3.09,2.37-4.43a25.27,25.27,0,0,1,4.19-4.27,41.13,41.13,0,0,1,6,2.37Zm-14-3.64h.55a28.83,28.83,0,0,1,5.54.82l.78.2c-4.67,2.74-7.27,5.72-8.69,8.84a16.24,16.24,0,0,1,1.84-9.86Zm-10.95,5.45a24.15,24.15,0,0,1,.74,5l-.25-.52a18.63,18.63,0,0,0-2.34-4,.86.86,0,0,1-.1-.16Zm-3.34,1.1a22.4,22.4,0,0,1,1.72,3.84,23.32,23.32,0,0,1,.76,2.84,18.79,18.79,0,0,1,.41,3.42c0,.1,0,.19-.35.26,0,0-.06-.06-.06-.1-.09-.63-.14-1.26-.28-1.9a13.4,13.4,0,0,0-.49-1.86c-.27-.79-.58-1.57-.93-2.35a19.22,19.22,0,0,0-2.56-4.05c-.21-.26-.29-.21.43-.36l1.07-.2a2.41,2.41,0,0,1,.3.46Zm-4.33-3c.5-.17,1-.35,1.44-.52l.35-.11.15.16,1.83,2.55c.1.14.08.14-.31.21l-1,.17h-.38l-.17-.16c-.67-.7-1.35-1.4-2.05-2.09-.09-.07-.08-.14.16-.22Zm-1.34,7.94-.14-.13a20.56,20.56,0,0,0-3.26-2.85c-.17-.12-.18-.12.09-.21l1.86-.6.3-.08a10.3,10.3,0,0,1,1.17,3.86Zm-5.13-5.17c.8-.34,1.54-.71,2.3-1.07l.32-.13h.11c.11.2.24.39.35.58.22.39.42.79.65,1.19.07.12,0,.19-.3.27-.78.19-1.52.41-2.26.61l-.36.1-.29-.18a2.3,2.3,0,0,1-.87-.77c-.16-.24-.07-.42.37-.61Zm-.45,2.89c.22.22.48.4.56.59.23.54.4,1.09.57,1.63a1.21,1.21,0,0,1,0,.38c-.1-.12-.22-.25-.32-.39a9.37,9.37,0,0,0-1.64-1.63c-.12-.09-.11-.16.08-.24a4.39,4.39,0,0,0,.77-.35Zm-4.72,1.06a.25.25,0,0,1-.17-.09,3.13,3.13,0,0,1-.29-.42.09.09,0,0,1,0-.13h0l1.24-.83a.35.35,0,0,1,.14-.06l1,.53c.1,0,0,.09-.08.13l-.77.35-.79.38Zm.17,6h-.1l-.19-.45a5.75,5.75,0,0,0-1.25-1.86c-.07-.07-.09-.13,0-.2l.76-.92.1-.07a9.43,9.43,0,0,1,.7,3.44Zm2.89-6.2a8,8,0,0,1,2.21,1.72L246.6,511l-1.09-.35-1.18-.33Zm-.24-2.38,1.07.85a.06.06,0,0,1,0,.08l0,0-1,.4-.24-.14c-.27-.15-.55-.31-.8-.47-.06,0-.13-.1-.08-.13.31-.21.67-.41,1-.61Zm-6.44-5.75a.85.85,0,0,1,.22.09,28.62,28.62,0,0,1,5.52,3.37l.08.06c.15.13.14.13-.26.24-1.16-.54-2.37-1-3.7-1.52a37.68,37.68,0,0,0-4.24-1.29,16.26,16.26,0,0,1,2.4-1Zm-4,1.64,1.09-.49.68.23a39.44,39.44,0,0,1,6.22,2.8.42.42,0,0,1,.14.09s0,.08,0,.1c-.55.26-1.13.5-1.72.76l-2.16-.69h-.34l-.15-.08c-.42-.29-.8-.58-1.26-.87s-.89-.5-1.33-.75a3,3,0,0,1-.44-.28l-.79-.67c-.08-.09-.08-.14.07-.21Zm5.6,7.84a2.85,2.85,0,0,1-.87.63c-.21-.24,0-.44.32-.65Zm-2.78-4.61-1-1.28h.06l.16.08,1.18.9c.19.14.18.14-.16.26h-.13Zm.08,1.92s.05.1,0,.14l-1.21.71-2.35-.09a28.2,28.2,0,0,1,2.66-1.8h.12l.46.58a4.12,4.12,0,0,1,.33.4Zm1-1.45a.4.4,0,0,1,.18.1,5.17,5.17,0,0,1,.42.51.07.07,0,0,1,0,.1h0a5.07,5.07,0,0,1-.82.38l-.63-1.19Zm-5.36-2.8a19.54,19.54,0,0,1,3.07,2.68c.07.07.06.12-.08.18-1.18.47-2.26,1-3.27,1.48l-.18.07a25.75,25.75,0,0,0-4-2,41.93,41.93,0,0,1,4.3-2.51Zm-4.83,5.38H228l-.77-.46-.61-.33a.56.56,0,0,1-.25-.23.29.29,0,0,1,.11-.27l1.16-.87.22-.13.28.1a33.79,33.79,0,0,1,3.35,1.68c.29.17.24.2-.31.24Zm.57,6.15c-.34.47-.64.94-1,1.4h0l1-1.84a.3.3,0,0,1,0,.38Zm-2-3.52v-.56c.43.12.43.31,0,.5Zm-10.4-1.93a.91.91,0,0,1-.42.17,27,27,0,0,0-5.08,1.45l-.3.11h-.08a31.77,31.77,0,0,1,6.88-6.57l.26.09,1.93.91c.14.06.18.12.17.2a6.44,6.44,0,0,0-.1.87.35.35,0,0,1-.17.27,36.53,36.53,0,0,0-3.1,2.44Zm1.63,2.25-1.58,2.28h0c.1-.24.2-.47.31-.7l.7-1.4c0-.2.08-.22.56-.24ZM216.63,515v.06h0V515Zm-3.89-11.28a33.48,33.48,0,0,1,4,.42l-.73.31-1-.31H215l.9.37a47.11,47.11,0,0,0-8,4.39c-.11-.44,3.94-4.72,4.89-5.23Zm-6.19,3.89c-.82.67-1.52,1.35-2.34,2,.07-.15.12-.32.18-.47a18,18,0,0,1,3.27-5.16.3.3,0,0,0,.07-.08.71.71,0,0,1,.37-.12,33,33,0,0,1,3.85-.11h.17c-1,.64-2,1.28-2.94,1.93s-1.81,1.3-2.63,2Zm17.9-.24s.14.11-.06.17l-.2-.06-1.67-.72c-.1,0-.19-.08-.11-.15l.78-.6h.12l.12.1Zm-.57-3.21c-.06-.06.08-.09.21-.13a17.64,17.64,0,0,1,3.39-.56H228a27.63,27.63,0,0,0-3.5,1.27h-.12Zm-2.29,2.18h-.08l-.85-.33a.07.07,0,0,1-.06-.08,2.66,2.66,0,0,1,.93-.8h.11l1.15.31c.13,0,.17.08.09.13Zm-.74.49v.05l-.65.46h-.12a1.46,1.46,0,0,1,.18-.79,1.77,1.77,0,0,1,.59.23ZM219.64,504l1.13-.69h.1c.4.37.72.74,1.07,1.11a22.87,22.87,0,0,1-2.3-.47Zm1.32,1c.16,0,.25.07.17.14-.26.24-.5.49-.75.73h-.06l-2.24-.85.82-.55.7.14Zm.7,2.34.19.08,1.31.79c.11.07.11.12,0,.19l-1.89,1.35a.51.51,0,0,1-.31.11l-1.54.09a23.91,23.91,0,0,1,2.24-2.68Zm.28,6.38c.35-.6.72-1.2,1.07-1.81.05-.1.18-.15.46-.18l2.26-.24h.34c.11,0,0,.14-.09.2l-1.12.53a18,18,0,0,0-2.73,1.64L222,514h-.11a1.26,1.26,0,0,1,.1-.33Zm2.82-3.87.24-.23h.1l.33.25a2.52,2.52,0,0,1-.67-.09Zm1.33,2.5,0,.07h0c.07.29-.12.55-.49.82-.77.57-1.44,1.15-2.16,1.73l-.16.12a9.57,9.57,0,0,1,2.75-2.81Zm-.39-5.54a1.1,1.1,0,0,1-.28-.46h.08l.66.23Zm-1.06-1.67.14-.11a20.38,20.38,0,0,1,3.35-1.47,1.7,1.7,0,0,1,.59-.1,21.51,21.51,0,0,1,3,.21h.18c-1.66.71-3.2,1.46-4.63,2.23Zm6.67,6.67c.2-.22.4-.45.58-.68s.18-.12.43-.12h1.47l-1.94,1.59h-.08l-.12-.09a3.24,3.24,0,0,0-.36-.38.23.23,0,0,1-.08-.3.22.22,0,0,1,.1-.09Zm-12.79-13.15a23.51,23.51,0,0,1,5.88,1,30,30,0,0,1,4,1.58,31.61,31.61,0,0,1,3.3,1.76l.21.14h-.33a17.8,17.8,0,0,0-5.05.06,16.55,16.55,0,0,0-2.51.56l-.26.07h-.12a.71.71,0,0,1-.14-.1c-.37-.38-.73-.77-1.1-1.16-.08-.07-.06-.14.07-.2.37-.2.73-.39,1.05-.6l-1.46.46-1-.92c-.36-.3-.73-.61-1.11-.91s-.77-.59-1.17-.88l-1.25-.87a5.49,5.49,0,0,1,1-.06Zm-20.62,2.69a27.47,27.47,0,0,1,3.74-1.82,57.74,57.74,0,0,1,10.4-2.9l.76-.14.21.13,2.53,1.9c.05,0,.05.09.08.14h0c.32,0,.33.17.45.26,1.5,1.21,2.86,2.44,4.12,3.68l.09.1c.07.06,0,.11-.09.16l-2.18.8a.82.82,0,0,1-.49,0c-1-.11-1.91-.2-2.89-.26l-1-.05h-.54l.41-.38h-.07l-.51.29a.81.81,0,0,1-.51.1,32.09,32.09,0,0,0-4.16.18h-.12a14.31,14.31,0,0,1,2.53-2.45c1-.8,2-1.58,3.11-2.36l-.32.13a36.38,36.38,0,0,0-5,2.68,25,25,0,0,0-3.18,2.43,1.39,1.39,0,0,1-.65.38c.06,0,.14,0,.15.06s0,.06-.07.09c-.3.31-.61.62-.89.94a15.57,15.57,0,0,0-2.61,3.9c-.08.19-.16.38-.25.57l-.09.12h-.05a4.53,4.53,0,0,0-.12-.89c-.16-.78-.31-1.56-.5-2.33q-.19-.82-.45-1.65a9.6,9.6,0,0,0-1.29-2.58c-.22-.33-.46-.65-.71-1a.26.26,0,0,1,.16-.3ZM193,505.26a20.48,20.48,0,0,1,4-3.31l.25-.15c.06.07.11.1.13.14a6.12,6.12,0,0,1,.75,1.62c.13.43.25.87.37,1.3a5.05,5.05,0,0,1,.12.56,15.47,15.47,0,0,1,.08,3.19.79.79,0,0,1-.06.22h-.09l-.12-.09a29.78,29.78,0,0,0-5.28-3.19c-.22-.16-.26-.24-.15-.36Zm-.82,2.16.21.13a10.25,10.25,0,0,1,3.15,3.07c.51.86,1,1.73,1.48,2.59a.29.29,0,0,1,0,.31,3.67,3.67,0,0,1-.34.53.52.52,0,0,1-.1.11h-.1l-.29-.34c-.91-1.2-1.83-2.4-2.7-3.61a9.84,9.84,0,0,1-1.38-2.65.33.33,0,0,1,.07-.21ZM183.88,503l3.85,1.89a.71.71,0,0,1,.27.21,20,20,0,0,1,1.93,3.73c.37,1,.67,2,1,3a15.31,15.31,0,0,1,.61,3.8v1.58a11,11,0,0,1-.09,1.16.44.44,0,0,1,0,.15h-.13v-.75c-.08-.94-.13-1.9-.27-2.84a14.49,14.49,0,0,0-.83-3.1,21.72,21.72,0,0,0-4.92-7.44l-1.4-1.34a.21.21,0,0,1-.1-.14Zm-9.38,7.21,2.73,1,.15.08c.42.32.83.65,1.24,1h-.08c-1.26-.74-2.76-1.42-4.25-2.14Zm-1.26.23,1.65.48a3.45,3.45,0,0,1,.8.38,3.25,3.25,0,0,1,1.28,1.44,6.13,6.13,0,0,1,.54,2.19.21.21,0,0,1,0,.11h-.09l-.17-.17a14.07,14.07,0,0,0-2.47-1.87,1.58,1.58,0,0,1-.55-.51c-.38-.63-.79-1.26-1.19-1.89l-.14-.24a2,2,0,0,1,.34.05Zm-3.64-.68,1.44.2a.3.3,0,0,1,.28.12c.2.45.4.89.59,1.34v.05l-.22-.07a3.71,3.71,0,0,1-1.43-.84,10,10,0,0,0-.78-.68l-.15-.14h.27Zm-13.37-6.14a19.25,19.25,0,0,1,5.57,0,18.56,18.56,0,0,1,3.3.75c.48.16.92.33,1.36.5a1.54,1.54,0,0,1,.34.17,9.71,9.71,0,0,1,2.21,1.78l.06.1h-.31c-.84-.23-1.66-.46-2.52-.67s-2-.41-3-.57l-2.08-.28a2.66,2.66,0,0,1-.49-.1c-1.45-.53-3-1-4.63-1.46l-.23-.07Zm12.41,11.16V515a19.22,19.22,0,0,0-1.59-1.42,12.93,12.93,0,0,0-2-1.34,24.32,24.32,0,0,0-2.59-1.2c-.94-.38-2-.72-3.12-1.05h.34l2.7-.28a1.62,1.62,0,0,1,.62,0,42.28,42.28,0,0,1,4.08,1.34.77.77,0,0,1,.32.22,6.82,6.82,0,0,1,1,2,13.5,13.5,0,0,0,.24,1.53Zm-13.56-11a32.71,32.71,0,0,1,3.35,1.23c-2.11-.11-4.21-.17-6.33-.1A7.62,7.62,0,0,1,155.08,503.81ZM150.75,507l-.38-.05a1.35,1.35,0,0,1,.27-.72h1c2.05.1,4.05.27,6,.49,1.76.19,3.5.39,5.18.65a1.55,1.55,0,0,1,.66.21c.15.12.31.23.47.34V508h-.32a29.6,29.6,0,0,0-3.12.13,2.08,2.08,0,0,1-.61,0A90.88,90.88,0,0,0,150.75,507Zm11.66,8.81c-.67-.57-1.31-1.15-2-1.71a19,19,0,0,0-6-2.77l-.57-.17.38-.13a32.41,32.41,0,0,1,3.9-.9.86.86,0,0,1,.75.06,17.61,17.61,0,0,1,4.35,2.6A8,8,0,0,1,165.6,516a5,5,0,0,1,.37,2.22,8.6,8.6,0,0,1-.23,1.45.83.83,0,0,1-.08.12h-.06c-.12-.21-.24-.42-.37-.63a12.81,12.81,0,0,0-2.82-3.36Zm149.79,2.44a15.07,15.07,0,0,0-.39-2.11c-.24-.89-.56-1.77-.86-2.66a1.83,1.83,0,0,0-.14-.32c0-.06,0-.1.18-.12l.62-.09c.47.41.88,3.11,1,5.32Zm39.42-8a13.16,13.16,0,0,0-3,2.25c-.46.45-.92.89-1.31,1.34a21.31,21.31,0,0,0-1.84,2.59,23.7,23.7,0,0,0-1.73,3.07c-.2.47-.37.93-.55,1.4a.13.13,0,0,1-.07.06,4.09,4.09,0,0,1,0-.7,15.57,15.57,0,0,1,.33-1.91,12.63,12.63,0,0,1,.68-1.9,25.41,25.41,0,0,1,3.42-5.44.63.63,0,0,1,.44-.22c1-.23,2.12-.43,3.26-.58h.46Z" transform="translate(-0.02)" style="fill:url(#fb625bab-f39a-428c-be1f-24ce496a1d11)"/><path d="M552.08,507.27a26.56,26.56,0,0,0-7.17-.55,39.08,39.08,0,0,0-5.5.63,34.79,34.79,0,0,0-7.53,2.21,1.67,1.67,0,0,1-.73.14c-1.11,0-2.21.08-3.3.16h-.36a.06.06,0,0,1,0-.06l.16-.18a38.32,38.32,0,0,1,5.65-5.07c.87-.64,1.83-1.27,2.74-1.9a1.34,1.34,0,0,1,.58-.2l.94-.17a54.11,54.11,0,0,1,6.72-.84c.83-.05,1.67-.09,2.51-.06.68,0,1.36.07,2,.11h-.11a23,23,0,0,0-4.61-.22,74.62,74.62,0,0,0-7.61.8,50.93,50.93,0,0,0-10.38,2.61c-1.25.49-2.39,1-3.57,1.51a18.91,18.91,0,0,0-4.34,2.54,16,16,0,0,0-3.41,3.66.4.4,0,0,1-.24.18,25.79,25.79,0,0,0-3.48,1.55l-.16.06A.24.24,0,0,1,511,514c.53-.62,1-1.23,1.57-1.84a31.31,31.31,0,0,1,5.88-5.08,49.68,49.68,0,0,1,4.91-2.93.23.23,0,0,0,.2-.16,78.12,78.12,0,0,0-9,3.41,49.81,49.81,0,0,0-6.93,3.93,19.67,19.67,0,0,1,2.62-3.14c1-1,2.21-2,3.44-3a42.05,42.05,0,0,0-9.31,6.74v-.06a14.82,14.82,0,0,1,1.18-2.52,17.35,17.35,0,0,1,2-2.82l.88-1s.07-.1.3-.09c-.18-.09-.06-.16,0-.24a32.77,32.77,0,0,1,5-4.1l.18-.13h-.07c-1.31.58-2.5,1.18-3.61,1.8a31.35,31.35,0,0,0-3,1.94h-.13l-1.75-.66c-.17-.06-.17-.11-.11-.19.53-.69,1.07-1.39,1.59-2.09a.92.92,0,0,1,.55-.22c2.8-.48,5.69-.87,8.66-1.2,4-.44,8.06-.75,12.18-1l.94-.06h-1.59c-2.49,0-5,.08-7.44.19-4,.17-7.83.46-11.6.93h-.35l.15-.14L510,499a9.12,9.12,0,0,1,2-1,46.32,46.32,0,0,1,10.45-2.39,80.93,80.93,0,0,1,10.67-.6c2.14,0,4.23.11,6.29.29a42.79,42.79,0,0,1,9.9,1.9h.15a.92.92,0,0,0-.3-.18,23.29,23.29,0,0,0-4.14-1.35,55.64,55.64,0,0,0-14.38-1.34,53.92,53.92,0,0,0-5.81.46q-2.31.33-4.56.69a33.89,33.89,0,0,0-8.66,2.46,20.43,20.43,0,0,0-4.1,2.37,1.11,1.11,0,0,1-.43.15l-3.25.49h-.32a14.61,14.61,0,0,1,1.47-2.18c.56-.71,1.19-1.42,1.79-2.13h-.07l-.31.22a28.28,28.28,0,0,0-4.38,4.23.77.77,0,0,1-.5.22c-.82.16-1.65.34-2.46.52a2,2,0,0,1-.84,0,49.54,49.54,0,0,0-7.6-.64,1.46,1.46,0,0,1-.68-.14l-2.24-1.2-.26-.12c.48.49,1,1,1.53,1.46a48.68,48.68,0,0,0-5.39.4l-.39-.21h-.08c.07.08.14.15.19.22l-3.11.58-2.43-1.69h.38q5.28-.9,11-1.4,7.14-.63,14.5-.68a1.85,1.85,0,0,0,.47,0,75.61,75.61,0,0,0-8.5-.64A85,85,0,0,0,476,499.48h-.14l-.2-.12c-1.76-1-3.67-2-5.76-3l-.2-.07a1.12,1.12,0,0,0,.28.25q2.22,1.57,4.12,3.21c.17.14.17.14-.19.24-1,.28-2,.58-3,.91-1.16.41-2.19.86-3.22,1.31l-.33.13a36.32,36.32,0,0,0-6.9-2.23c.68-.53,1.42-1.05,2.14-1.56-.54.22-1,.44-1.51.67l-1.42.7c-.86-.13-1.66-.27-2.5-.39a21.08,21.08,0,0,0-2.63-.25c-.88,0-1.77-.06-2.69-.09a17.12,17.12,0,0,1,1.59-2.45c.64-.8,1.33-1.59,2-2.4l-.19.14a28.29,28.29,0,0,0-2.87,2.49c-.68.71-1.31,1.43-1.93,2.14-.11.13-.28.19-.67.22a17.58,17.58,0,0,0-1.78.17h-.28c.79,0,1.57-.07,2.38,0-.38.55-.75,1.08-1.08,1.61s-.63,1.06-.94,1.6c-.2-.32-.38-.66-.55-1a14.67,14.67,0,0,0-1.48-2.18,13.38,13.38,0,0,0-3.17-3.2,21.84,21.84,0,0,0-5.61-2.86c-.49-.17-1-.34-1.43-.52a14.73,14.73,0,0,0-3.52-.86,30.11,30.11,0,0,0-5.2-.09,17.31,17.31,0,0,0-7.25,1.65l-.17.12h.1l.24-.08a17.92,17.92,0,0,1,3.55-.81,33.44,33.44,0,0,1,5.92-.23,29.87,29.87,0,0,1,6.65,1,25.26,25.26,0,0,1,4.24,1.54,9.76,9.76,0,0,1,1.35.73,11.56,11.56,0,0,1,3,3,13.8,13.8,0,0,1,1.5,2.81,16.6,16.6,0,0,1,.54,1.69,10,10,0,0,1,.22,1.09,2.76,2.76,0,0,1,0,.81,10.74,10.74,0,0,1-.27,1.12l-.06.22h-.09l-.14-.19a32,32,0,0,0-4.21-5,30.06,30.06,0,0,0-5-3.77l-.32-.19a3,3,0,0,0,.36.62,26,26,0,0,1,2.17,3.85c.32.75.6,1.49.9,2.24.08.2.12.41.19.61s-.06.12-.27.15l-1.51.19h-.29a.46.46,0,0,1-.12-.12,23.08,23.08,0,0,0-2.56-2.67c-.1-.09-.07-.15.14-.22l1.65-.52.33-.11h-.06l-2.55.44a27.82,27.82,0,0,0-3.6-2.59,35.18,35.18,0,0,1,2.68,2.78l-2.42.53-.16-.1-2.1-1.67a47.9,47.9,0,0,0-5.41-3.65,62.93,62.93,0,0,0-5.76-3l-.28-.12a.16.16,0,0,0,.07.13c1.33.91,2.49,1.85,3.65,2.79a37.27,37.27,0,0,1,4.59,4.38l1.73,2c.09.1,0,.17-.22.24l-3,1-.39.12a23.68,23.68,0,0,0-5.3-3.86l1.74-.55c-.36.06-.67.13-1,.21l-.94.24c-4.55-2.43-10.68-4.19-17.93-5.51a1.63,1.63,0,0,0,.31.11c3.84,1.24,7.62,2.51,11.08,3.88,1.55.62,3,1.26,4.43,1.92l.22.12-2.87.92c-1-.24-2-.46-3.09-.63l2.63.78a9.58,9.58,0,0,1-1.06.39l-.24-.16a20.76,20.76,0,0,0-2.19-1.39,21.28,21.28,0,0,0-4.27-1.78,28.43,28.43,0,0,0-4.92-1,24.43,24.43,0,0,0-4.36-.16l-.95.07-3.47-2c2-.35,3.94-.63,6-.87h-.43c-2.13,0-4.23.06-6.31.23a1.41,1.41,0,0,1-.72-.1l-1.75-.85-.2-.08h0l1.66,1.09-.44.06-1,.11a52.06,52.06,0,0,0-10.69,2.27,23.89,23.89,0,0,0-3.5,1.49l-.28.13-.17-.08-1.92-1a26,26,0,0,0-7.08-2.29,33.73,33.73,0,0,0-6.34-.63,26.15,26.15,0,0,0-4.33.33l-.47.09h.35c.75-.07,1.51-.11,2.29-.11a20.2,20.2,0,0,1,2.74.13,46.72,46.72,0,0,1,5.13.79,27.9,27.9,0,0,1,8.87,3.06c.18.1.2.18,0,.29a10.76,10.76,0,0,0-1.75,1.33,5.7,5.7,0,0,0-1.12,1.37c-.25.51-.46,1-.69,1.53l-.12.12-.34-.14c-.72-.29-1.43-.58-2.16-.86a1.64,1.64,0,0,1-.54-.32,27.83,27.83,0,0,0-4.89-3.9l-.23-.13c.35.38.76.76,1.14,1.13s.76.78,1.11,1.16a7.31,7.31,0,0,1,.93,1.15,2,2,0,0,1-.35-.08l-3.71-1.1a1.77,1.77,0,0,1-.49-.21,43.66,43.66,0,0,0-4-2.87,60.18,60.18,0,0,0-7.94-4.29l-.18-.07c0,.06.06.1.13.14,1.35,1,2.62,1.94,3.82,2.93a44.89,44.89,0,0,1,5.26,5.15,17.24,17.24,0,0,1,2.28,3.09c.42.81.81,1.63,1.14,2.45a17.65,17.65,0,0,1,.63,2.09c.08.32.12.63.19.94v.08c-.08,0-.11,0-.13-.07a15.89,15.89,0,0,0-1.76-1.72,23.17,23.17,0,0,0-2.84-2.07,1.16,1.16,0,0,1-.36-.3,13.26,13.26,0,0,0-2.54-3,22.91,22.91,0,0,0-6.61-4,43.22,43.22,0,0,0-9.55-2.57,42,42,0,0,0-8-.49,37.82,37.82,0,0,0-6,.64l-.43.09h1.85c2,0,3.93,0,5.87.15,6.77.48,12.31,1.67,16.57,3.57.72.32,1.29.68,2,1a18.68,18.68,0,0,1,4.87,3.39.76.76,0,0,1,.11.14H355l-.26-.13a40.54,40.54,0,0,0-5.61-2.35,55.81,55.81,0,0,0-7.08-1.85l-.37-.06a1,1,0,0,0,.28.11c1.31.36,2.55.75,3.72,1.16a35.27,35.27,0,0,1,8.54,4.24,27.27,27.27,0,0,1,2.62,2.18.42.42,0,0,1,.09.14c.17.47.33.93.49,1.39a1.83,1.83,0,0,0,.09.39h-.1l-.21-.13a30.4,30.4,0,0,0-7.57-3.65.77.77,0,0,1-.31-.19,19.88,19.88,0,0,0-2-1.67A14.46,14.46,0,0,0,344.8,504a15.17,15.17,0,0,0-4.5-1.12,18,18,0,0,0-2.75-.06,19.47,19.47,0,0,0-3.23.45,1,1,0,0,1-.76,0c-1.76-.43-3.61-.81-5.55-1.12h-.37l3,.66a18.16,18.16,0,0,1,2.71.76l-.14.06a9.39,9.39,0,0,0-2.27,1,1.57,1.57,0,0,1-.49.27,6.65,6.65,0,0,1-.89.06,55.88,55.88,0,0,0-9.55,1.34l-.24.07a87.67,87.67,0,0,1,9.59-.23c-.07.25-.14.48-.21.72l-4.53-.26a.8.8,0,0,0,.3.06l3.85.43c.4.05.38.05.41.2s.1.4.15.61c.06-.24-.09-.47,0-.73,2.66.34,5.19.74,7.68,1.24a15.56,15.56,0,0,0-6.07,2.22l-.43-.09c-.7-.13-1.39-.28-2.12-.4a36,36,0,0,0-7.18-.49,22.92,22.92,0,0,0-4.13.47l-.59.13a.86.86,0,0,0,.32,0,22,22,0,0,1,2.28-.21,32,32,0,0,1,3.92.11,63.41,63.41,0,0,1,7,1l.24.06c-.13.21-.28.41-.39.62a.71.71,0,0,0-.1.63,11.89,11.89,0,0,1,1.86-1c.33.09.61.18.91.25a28.16,28.16,0,0,1,5.56,2,4.22,4.22,0,0,1,.66.36c.35.29.68.59,1,.91a11.11,11.11,0,0,1,1.78,2.46A12.77,12.77,0,0,1,343,521.2l.1.3h.74c-7.71,1.39-12.09,3.09-12.09,5.11H537.08c0-2-4.45-3.74-12.28-5.14v-.66a9.53,9.53,0,0,1,.13-1.31c.18-.78.4-1.56.64-2.34a12.34,12.34,0,0,1,1.56-3.15,11.41,11.41,0,0,1,1.9-2.31,1.76,1.76,0,0,1,.34-.27,29,29,0,0,1,3.07-1.5,3,3,0,0,1,1.29-.1l1,.15c3.6.48,6.16,1.35,7.82,2.55a5.26,5.26,0,0,1,1.77,2.06l.15.25a2,2,0,0,0,.34-.12,7.49,7.49,0,0,0,.89-.46c.74-.52,1-1.07.87-1.65-.18-.81-1.27-1.46-3-2a20.39,20.39,0,0,0-4.18-.77,42.54,42.54,0,0,0-5-.17h-1.19l.33-.14c.79-.29,1.66-.56,2.59-.8a56.2,56.2,0,0,1,10.06-1.59,26.64,26.64,0,0,1,4.19,0c.65.06,1.28.14,1.92.21Zm-34.65,4c.41-.6.81-1.2,1.25-1.81a11.3,11.3,0,0,1,3.86-2.81,43,43,0,0,1,10-3.3l2.46-.52.33-.06c0,.07-.13.1-.21.15a66.34,66.34,0,0,0-6.77,3.72,39.8,39.8,0,0,0-5,3.66,1.09,1.09,0,0,1-.57.22,44.94,44.94,0,0,0-5.15,1.11l-.36.1h-.1a1.72,1.72,0,0,1,.24-.51Zm-1.35,5.08a14.51,14.51,0,0,1,3.91-3.1l.4-.21h.14a24,24,0,0,0-2.59,3.58,16.66,16.66,0,0,0-1.65,3.62h-.09c0-.3-.1-.59-.12-.88-.07-.84-.1-1.69-.19-2.53A.55.55,0,0,1,516.08,516.35Zm-10.43-12.09-.06-.1.2.06c.37.14.72.29,1.11.43.2.07.2.13.08.22a20.68,20.68,0,0,0-2.49,2.18c-.37.39-.71.79-1.07,1.19l-.16.18h-.11c.16-.49.3-1,.48-1.45s.38-1,.6-1.44a10.2,10.2,0,0,1,.81-1.44,2.48,2.48,0,0,1,.59.17Zm-2.9-1.8c0-.06.08-.1.23-.13l2.86-.56H506c-.54.62-1.18,1.2-1.77,1.81l-.25-.07-1.26-.43c-.18-.06-.24-.11-.18-.19a2.26,2.26,0,0,0,.17-.43Zm-.33.75,1.58.46c.14,0,.1.1.06.15-.21.27-.43.54-.62.81s-.55.81-.8,1.21c-.06.09-.17.15-.43.17l-.72.08a15.3,15.3,0,0,1,.91-2.88ZM501.13,508c.08-.5.17-1,.24-1.49,0-.08.09-.13.3-.17l.6-.13h.08c-.39.64-.78,1.28-1.16,1.92h-.06Zm-.37-5.15-.08.16a17,17,0,0,0-1.75,3.29c-.06.14-.19.22-.57.27s-.73.13-1.09.19a3.21,3.21,0,0,1-.43.07c-.39-.41-.77-.83-1.16-1.23s-.83-.81-1.25-1.2C495.08,504.14,500.16,502.89,500.76,502.85Zm-2.16,4.24c-.16.49-.31,1-.45,1.43h-.07l-.1-.09c-.2-.29-.39-.58-.62-.87-.07-.1,0-.16.21-.21s.63-.18,1-.26Zm-1-4.78-4.19,1.2L491,501.8a56.06,56.06,0,0,1,6.6.51Zm-25.23,6.13c.17.08.19.14.07.24-.39.29-.75.58-1.12.87-.07.07-.15.11-.38.12l-2.52.05h-.16a10,10,0,0,1,1.93-2.33l.27.11Zm-1.58-1.65.4-.32a5.71,5.71,0,0,1,1.15.87Zm2.18,5.53a16.14,16.14,0,0,1,1.7-2.07.08.08,0,0,1,.08.07,5.27,5.27,0,0,1,.71,1.95.34.34,0,0,1-.16.24,41.47,41.47,0,0,0-3.51,2.84c-.22.21-.39.42-.58.63l-.07.07a11,11,0,0,1,1.79-3.73Zm-3.92-5.26a25.26,25.26,0,0,0-3.3,2.81.51.51,0,0,1-.35.15,17.55,17.55,0,0,0-4.33,1.16,13.43,13.43,0,0,0-2.39,1.29l-.27.16h-.11v-.08a19.71,19.71,0,0,1,2.57-4.73,15.39,15.39,0,0,1,2.65-2.7l.18-.14h.1l.26.06q2.64.85,5,1.82c0,.06.07.14-.05.2Zm-4,10.16a.51.51,0,0,1,.07-.31c.1-.47.18-.94.31-1.41a11.65,11.65,0,0,1,.47-1.41c.27-.67.61-1.35.9-2a.63.63,0,0,1,.34-.3,11,11,0,0,1,2-.77l.5-.13h.08a.53.53,0,0,0-.12.14c-.54.53-1.12,1.06-1.6,1.6a12.9,12.9,0,0,0-2.42,3.65,10.57,10.57,0,0,0-.35,1Zm10.69-6.63h.08c.19.15.4.3.58.45s.38.24.38.35-.27.24-.43.35l-.41.29h-.08Zm2.39,4,.61-1h.1a1,1,0,0,1,.13.16c.08.14.16.28.25.42s0,.2-.29.27-.47.13-.71.2Zm8.84-8.47a11.26,11.26,0,0,1-1.39.57h-.18a1.22,1.22,0,0,1-.17-.15,32.09,32.09,0,0,0-2.68-2.4c-.12-.09-.13-.17,0-.26.56-.27,1.11-.55,1.65-.83l.31-.13a1.07,1.07,0,0,1,.16.14,30,30,0,0,1,2.38,2.77c.09.17,0,.23-.11.31Zm.51.29c.16.22.31.42.43.62.34.55.67,1.11,1,1.67.08.13,0,.22-.26.31l-1,.34-.12-.12c-.56-.67-1.1-1.33-1.67-2-.07-.09,0-.16.08-.25a5.82,5.82,0,0,1,1.51-.55Zm-4.93,4.43h-.09l-.62-.18-.68-.19.83-.77h.09Zm6.9,1.52c-.23-.43-.46-.86-.71-1.28a.22.22,0,0,1,.11-.23l.64-.36.25-.11a18,18,0,0,1,.78,2l-.95.1-.15-.1Zm-.68-6.35,3.19-.94a.49.49,0,0,1,.12.13c.37.71.74,1.42,1.08,2.13.16.35.23.25-.56.47-.54.14-1,.29-1.58.44l-.35.09Zm2.86,3.42,1.64-.68.28-.08a8.65,8.65,0,0,1,.57,3.41l-1.36.1a2.31,2.31,0,0,0-.18-.35c-.36-.72-.73-1.45-1.11-2.17-.07-.07-.05-.14.13-.21Zm2.5,3v.16a22.77,22.77,0,0,1-.08,2.33c0,.3-.05.6-.07.9v.11h0c-.33-1.12-.67-2.24-1-3.38ZM485.21,502c1.24-.11,2.5-.18,3.78-.19.38,0,.38,0,.51.12a21.33,21.33,0,0,1,1.84,2.19c0,.08,0,.13-.13.19l-2.81,1.14-.13.09-.19-.14a26.87,26.87,0,0,0-2.94-2.49c-.14-.1-.14-.18.08-.26a2.44,2.44,0,0,0,.44-.19h-.07l-.7.21a2.81,2.81,0,0,1-.79-.53Zm-1.48.18c.06.06.14.11.2.18a5,5,0,0,0,.39.37c.14.12,0,.11-.1.15l-2.18.76h-.15c-.49-.32-.88-.66-1.32-1A30.44,30.44,0,0,1,483.73,502.18Zm-4,3.53.16.16c.41.61.81,1.22,1.2,1.82.15.24.26.47.39.7a.24.24,0,0,1-.08.21l-2.52,1.4-.13.06a1.28,1.28,0,0,1-.67-.06l-2-1c-.18-.08-.19-.14-.1-.24a24.16,24.16,0,0,1,3.37-2.78Zm-2-2.36c.06,0,.12,0,.14.08.39.43.78.86,1.16,1.3.07.07,0,.12-.09.19a30.49,30.49,0,0,0-4.49,2.36l-.19.1-.13-.11-1.55-1.56c-.08-.08-.1-.14,0-.22a21.4,21.4,0,0,1,4.9-2.09Zm-2.19-2.24a1.33,1.33,0,0,1,.19.14c.57.57,1.14,1.15,1.73,1.72.09.1.05.15-.16.22a39.19,39.19,0,0,0-5,2l-.23.09a21.49,21.49,0,0,0-3.67-2.37,58.64,58.64,0,0,1,7.07-1.8Zm-9.27,2.46.24.1a43,43,0,0,1,3.95,2.28c.11.07.12.13,0,.2l-.55.34h-.25c-1.81-.57-3.72-1.1-5.75-1.59l.16-.15c.23-.17.49-.33.69-.51a4.18,4.18,0,0,1,1.36-.61Zm-.58-.31-.22.12-1.62.9-.62.32a.62.62,0,0,1-.38,0c.23.07.07.12,0,.17l-1.54.9a22.21,22.21,0,0,0-4.09,3.2c-.73.73-1.39,1.46-2.07,2.19a.59.59,0,0,1-.18.13,25.79,25.79,0,0,1,7.48-8.41,55.61,55.61,0,0,0-5.24,3.3,33.84,33.84,0,0,0-4.14,3.51c-.08-.41,1.36-3.09,2.38-4.43a24.84,24.84,0,0,1,4.18-4.27,40.11,40.11,0,0,1,6,2.37Zm-14-3.64h.55a28.94,28.94,0,0,1,5.55.82l.77.2c-4.67,2.74-7.26,5.72-8.69,8.84a16.24,16.24,0,0,1,1.79-9.86Zm-11,5.45a24.15,24.15,0,0,1,.74,5l-.25-.52a18.63,18.63,0,0,0-2.34-4l-.1-.16Zm-3.34,1.1a22.35,22.35,0,0,1,1.73,3.83,23.36,23.36,0,0,1,.77,2.84,19.7,19.7,0,0,1,.4,3.42c0,.1,0,.19-.35.26,0,0-.06-.06-.06-.1-.08-.63-.14-1.26-.27-1.9a13.44,13.44,0,0,0-.5-1.86,24.94,24.94,0,0,0-.93-2.35,19.22,19.22,0,0,0-2.56-4.05c-.21-.26-.29-.21.43-.36l1.07-.2a3.53,3.53,0,0,1,.29.47Zm-4.33-3,1.45-.52.34-.11.15.16,1.83,2.55c.1.14.09.14-.3.21l-1,.17h-.38l-.17-.16c-.67-.7-1.35-1.4-2-2.09-.15-.07-.14-.14.14-.22Zm-1.34,7.94-.14-.13a20.56,20.56,0,0,0-3.26-2.85c-.17-.12-.18-.12.09-.21l1.86-.6.3-.08a10.3,10.3,0,0,1,1.17,3.86Zm-5.13-5.17c.8-.34,1.54-.71,2.3-1.07l.32-.13h.11l.35.58c.22.39.42.79.65,1.19.07.12,0,.19-.3.27-.78.19-1.52.41-2.26.61l-.36.1-.29-.18a2.3,2.3,0,0,1-.87-.77c-.12-.24-.06-.42.37-.61Zm-.45,2.89c.22.22.48.4.56.59.23.54.4,1.09.57,1.63a1.21,1.21,0,0,1,0,.38c-.1-.12-.22-.25-.32-.39a9.37,9.37,0,0,0-1.64-1.63c-.12-.09-.1-.16.08-.24a3.39,3.39,0,0,0,.73-.35Zm-4.72,1.06a.25.25,0,0,1-.17-.09l-.29-.42c-.09-.14,0-.09,0-.13.4-.28.81-.55,1.23-.83a.35.35,0,0,1,.14-.06l1,.53c.1,0,0,.09-.08.13l-.77.35-.79.38Zm.17,6h-.09c-.07-.15-.14-.3-.2-.45a5.75,5.75,0,0,0-1.25-1.86c-.07-.07-.09-.13,0-.2l.76-.92.1-.07a9.43,9.43,0,0,1,.7,3.44Zm2.9-6.2a8,8,0,0,1,2.2,1.72l-1.07-.41-1.09-.35-1.17-.33Zm-.24-2.38,1.06.85a.06.06,0,0,1,0,.08l0,0-1,.4-.24-.14-.8-.47c-.06,0-.13-.1-.08-.13.31-.21.67-.41,1-.61Zm-6.44-5.75.21.09a28.69,28.69,0,0,1,5.53,3.37l.07.06c.15.13.15.13-.26.24-1.16-.54-2.37-1-3.7-1.52a37.68,37.68,0,0,0-4.24-1.29,16.37,16.37,0,0,1,2.41-1Zm-4,1.64c.36-.15.69-.31,1.09-.49l.68.23a39.44,39.44,0,0,1,6.22,2.8.42.42,0,0,1,.14.09v.1c-.55.26-1.13.5-1.72.76L418,506h-.34l-.15-.08c-.42-.29-.8-.58-1.26-.87s-.89-.5-1.33-.75a3,3,0,0,1-.44-.28c-.27-.22-.51-.45-.79-.67-.09-.09-.09-.14.06-.21Zm5.6,7.84a2.85,2.85,0,0,1-.87.63c-.21-.24,0-.44.32-.65Zm-2.78-4.61-1-1.28h.06l.16.08c.4.3.8.6,1.18.9.19.14.18.14-.16.26h-.13Zm.08,1.92v.14l-1.21.71-2.35-.09a28.2,28.2,0,0,1,2.66-1.8h.12l.46.58c.11.13.22.26.32.4Zm1-1.45a.32.32,0,0,1,.18.1c.15.16.29.33.43.51a.08.08,0,0,1,0,.11,6.22,6.22,0,0,1-.83.38l-.62-1.19Zm-5.36-2.8a20.7,20.7,0,0,1,3.08,2.68c.06.07,0,.12-.09.18-1.18.47-2.26,1-3.27,1.48l-.18.07a25.75,25.75,0,0,0-4-2,43,43,0,0,1,4.28-2.54Zm-4.83,5.38H407l-.77-.46-.61-.33a.56.56,0,0,1-.25-.23.29.29,0,0,1,.11-.27l1.17-.87.21-.13.28.1a33.79,33.79,0,0,1,3.35,1.68c.29.17.24.2-.31.24Zm.57,6.15c-.34.47-.64.94-1,1.4H407l1-1.84a.28.28,0,0,1,.1.38Zm-2-3.52v-.56c.42.12.42.31,0,.5Zm-10.4-1.93a.74.74,0,0,1-.42.17,27,27,0,0,0-5.08,1.45l-.3.11h-.08a31.77,31.77,0,0,1,6.88-6.57l.26.09,1.94.91c.13.06.17.12.16.2a6.44,6.44,0,0,0-.1.87.35.35,0,0,1-.17.27,36.68,36.68,0,0,0-3.11,2.44Zm1.63,2.25-1.58,2.28h0c.1-.24.2-.47.31-.7.23-.47.47-.94.71-1.4,0-.2.06-.22.54-.24ZM395.59,515v.06h0V515Zm-3.89-11.28a33.48,33.48,0,0,1,4,.42l-.73.31-1-.31h-.06l.91.37a47.11,47.11,0,0,0-8,4.39c-.12-.44,3.93-4.72,4.88-5.23Zm-6.19,3.89c-.81.67-1.52,1.35-2.33,2,.06-.15.11-.32.17-.47a18,18,0,0,1,3.27-5.16.18.18,0,0,0,.07-.08c0-.07.18-.1.37-.12a33,33,0,0,1,3.85-.11h.17c-1,.64-2,1.28-2.93,1.93s-1.82,1.3-2.64,2Zm17.9-.24s.14.11-.06.17l-.2-.06-1.67-.72c-.1,0-.19-.08-.11-.15l.79-.6h.11l.12.1a14.1,14.1,0,0,1,1,1.21Zm-.57-3.21c-.06-.06.09-.09.21-.13a17.64,17.64,0,0,1,3.39-.56h.48a29.27,29.27,0,0,0-3.5,1.27h-.11Zm-2.29,2.18h-.08l-.85-.33s-.07-.06-.06-.08a2.66,2.66,0,0,1,.93-.8h.11l1.15.31c.13,0,.17.08.09.13Zm-.74.49v.05c-.21.16-.43.31-.65.46h-.08a1.45,1.45,0,0,1,.17-.79,1.84,1.84,0,0,1,.56.23ZM398.6,504l1.13-.69h.1c.4.37.72.74,1.07,1.11a22.87,22.87,0,0,1-2.3-.47Zm1.32,1c.16,0,.25.07.17.14-.26.24-.5.49-.75.73h-.06L397,505l.82-.55.71.14Zm.7,2.34.19.08,1.31.79c.12.07.11.12,0,.19l-1.89,1.35a.51.51,0,0,1-.31.11l-1.54.09a23.91,23.91,0,0,1,2.24-2.68Zm.28,6.38c.35-.6.72-1.2,1.07-1.81,0-.1.18-.15.46-.18l2.26-.24H405c.11,0,0,.14-.09.2l-1.12.53a18,18,0,0,0-2.73,1.64l-.18.12h-.11a2.07,2.07,0,0,1,.1-.33Zm2.83-3.87.23-.23h.1l.33.25a2.5,2.5,0,0,1-.66-.09Zm1.33,2.5v.07h0c.06.29-.13.55-.49.82-.77.57-1.45,1.15-2.17,1.73l-.16.12a9.4,9.4,0,0,1,2.84-2.81Zm-.4-5.54a1.1,1.1,0,0,1-.28-.46h.08l.66.23Zm-1.06-1.67.15-.11a20.28,20.28,0,0,1,3.34-1.47,1.7,1.7,0,0,1,.59-.1,21.51,21.51,0,0,1,3,.21h.18c-1.66.71-3.2,1.46-4.63,2.23Zm6.67,6.67c.21-.22.4-.45.58-.68s.18-.12.43-.12h1.52l-1.94,1.59h-.08l-.12-.09c-.11-.13-.23-.26-.35-.38a.22.22,0,0,1-.13-.28.24.24,0,0,1,.09-.11Zm-12.79-13.22a23.51,23.51,0,0,1,5.88,1,30,30,0,0,1,4,1.58,31.61,31.61,0,0,1,3.3,1.76l.21.14h-.33a18.4,18.4,0,0,0-7.56.62l-.26.07h-.12l-.13-.1c-.38-.38-.74-.77-1.11-1.16-.08-.07,0-.14.08-.2a9.11,9.11,0,0,0,1-.6l-1.46.46-1-.92c-.36-.3-.73-.61-1.11-.91s-.77-.59-1.17-.88l-1.25-.87A5.91,5.91,0,0,1,397.48,498.57Zm-20.62,2.69a27.47,27.47,0,0,1,3.74-1.82,57.74,57.74,0,0,1,10.4-2.9l.77-.14.2.13c.85.63,1.7,1.26,2.53,1.9.06,0,.06.09.08.14h0a.64.64,0,0,1,.45.26c1.5,1.21,2.86,2.44,4.12,3.68l.09.1c.07.06,0,.11-.09.16l-2.18.8a.82.82,0,0,1-.49,0c-.94-.11-1.9-.2-2.89-.26l-1-.05h-.54l.41-.38h-.07l-.51.29a.81.81,0,0,1-.51.1,32.09,32.09,0,0,0-4.16.18h-.12a14.31,14.31,0,0,1,2.53-2.45c1-.8,2-1.58,3.11-2.36l-.32.13a36.38,36.38,0,0,0-5,2.68,25,25,0,0,0-3.18,2.43,1.39,1.39,0,0,1-.65.38c.06,0,.14,0,.15.06s0,.06-.07.09c-.29.31-.6.62-.89.94a15.57,15.57,0,0,0-2.61,3.9c-.08.19-.16.38-.25.57l-.08.12h-.06a4.53,4.53,0,0,0-.12-.89c-.16-.78-.31-1.56-.5-2.33q-.19-.83-.45-1.65a9.31,9.31,0,0,0-1.29-2.58c-.22-.33-.45-.65-.71-1C376.68,501.42,376.72,501.34,376.86,501.26Zm-4.93,3.93a20.48,20.48,0,0,1,4-3.31l.25-.15c.06.07.11.1.13.14a6.12,6.12,0,0,1,.75,1.62c.13.43.25.87.37,1.3a5.05,5.05,0,0,1,.12.56,15.47,15.47,0,0,1,.08,3.19.79.79,0,0,1-.06.22h-.08l-.13-.09a28.64,28.64,0,0,0-5.28-3.19c-.22-.09-.26-.17-.15-.29Zm-.82,2.16.21.13a10.14,10.14,0,0,1,3.15,3.07c.51.86,1,1.73,1.48,2.59a.29.29,0,0,1,0,.31,5.84,5.84,0,0,1-.33.53l-.11.11h-.1l-.29-.34c-.9-1.2-1.83-2.4-2.7-3.61a9.84,9.84,0,0,1-1.38-2.65.39.39,0,0,0,0-.14ZM362.85,503l3.84,1.89a.62.62,0,0,1,.27.21,20,20,0,0,1,1.93,3.73c.37,1,.67,2,1,3a15.8,15.8,0,0,1,.62,3.8v1.58a11,11,0,0,1-.09,1.16.38.38,0,0,1,0,.15h-.13v-.75c-.08-.94-.13-1.9-.27-2.84a14.49,14.49,0,0,0-.83-3.1,21.72,21.72,0,0,0-4.92-7.44l-1.4-1.34a.21.21,0,0,1-.1-.14Zm-9.39,7.21,2.73,1,.15.08c.42.32.83.65,1.24,1h-.08c-1.26-.74-2.76-1.42-4.25-2.14Zm-1.25.23,1.64.48a3.45,3.45,0,0,1,.8.38,3.25,3.25,0,0,1,1.28,1.44,6.36,6.36,0,0,1,.55,2.19V515h-.1l-.17-.17a14.07,14.07,0,0,0-2.47-1.87,1.58,1.58,0,0,1-.55-.51c-.38-.63-.79-1.26-1.19-1.89l-.14-.24a2,2,0,0,1,.35.09Zm-3.65-.68,1.44.2a.3.3,0,0,1,.28.12l.6,1.34-.05.05-.21-.07a3.46,3.46,0,0,1-1.43-.84c-.21-.23-.53-.45-.79-.68l-.15-.14h.31Zm-13.37-6.14a19.25,19.25,0,0,1,5.57,0,18.56,18.56,0,0,1,3.3.75c.48.16.92.33,1.37.5a1.71,1.71,0,0,1,.33.17,9.71,9.71,0,0,1,2.21,1.78l.06.1h-.31c-.84-.23-1.66-.46-2.51-.67s-2-.41-3-.57l-2.13-.38a2.66,2.66,0,0,1-.49-.1c-1.45-.53-3-1-4.63-1.46l-.23-.07Zm12.41,11.16V515a19.22,19.22,0,0,0-1.59-1.42,12.93,12.93,0,0,0-2-1.34,24.32,24.32,0,0,0-2.59-1.2q-1.53-.6-3.12-1.05h.34l2.71-.28a1.62,1.62,0,0,1,.62,0A41.39,41.39,0,0,1,346,511a.66.66,0,0,1,.32.22,6.82,6.82,0,0,1,1,2c.05.48.14,1,.24,1.5Zm-13.52-11a30.51,30.51,0,0,1,3.35,1.23c-2.11-.11-4.21-.17-6.33-.1A7.62,7.62,0,0,1,334.08,503.81ZM329.71,507l-.38-.05a1.44,1.44,0,0,1,.27-.72h1c2,.1,4,.27,6,.49,1.76.19,3.5.39,5.18.65a1.55,1.55,0,0,1,.66.21c.15.12.31.23.47.34V508h-.32a29.6,29.6,0,0,0-3.12.13,2.08,2.08,0,0,1-.61,0A90.53,90.53,0,0,0,329.71,507Zm11.66,8.81c-.67-.57-1.31-1.15-2-1.71a19.18,19.18,0,0,0-6-2.77l-.57-.17.28-.16a36.75,36.75,0,0,1,3.9-.9c.41-.07.37-.1.75.06a17.13,17.13,0,0,1,4.35,2.6,7.92,7.92,0,0,1,2.38,3.19,5.1,5.1,0,0,1,.38,2.22,8.6,8.6,0,0,1-.24,1.45.75.75,0,0,1-.07.12h-.07l-.36-.63a13.06,13.06,0,0,0-2.73-3.33Zm149.79,2.44a15.07,15.07,0,0,0-.39-2.11c-.23-.89-.56-1.77-.85-2.66a1.87,1.87,0,0,0-.15-.32c0-.06,0-.1.18-.12l.62-.09c.47.41.89,3.11,1,5.32Zm39.42-8a13.46,13.46,0,0,0-3,2.25c-.46.45-.92.89-1.31,1.34a21.31,21.31,0,0,0-1.84,2.59,24.39,24.39,0,0,0-1.73,3.07c-.2.47-.37.93-.55,1.4a.13.13,0,0,1-.07.06,4.09,4.09,0,0,1,0-.7,15.57,15.57,0,0,1,.33-1.91,12.63,12.63,0,0,1,.68-1.9,25.41,25.41,0,0,1,3.42-5.44.63.63,0,0,1,.44-.22c1-.23,2.12-.43,3.26-.58h.46Z" transform="translate(-0.02)" style="fill:url(#b8ec17f8-515b-4575-ac0d-2fb88ea39c49)"/><rect x="191.21" y="400.15" width="10.28" height="11.07" style="fill:url(#eac08cc4-f37f-4663-ac42-a55f5665536f)"/><rect x="191.21" y="412.61" width="10.28" height="12.65" style="fill:url(#ab7120ce-2199-4a96-bb57-0a567fc9b794)"/><path d="M201.51,384.29c-7.12.49-10.28,5.79-10.28,7.2v6.8h10.28Z" transform="translate(-0.02)" style="fill:url(#f5e1421b-781f-48f7-9e58-ebc23c92bcc8)"/><rect x="204.8" y="400.15" width="10.28" height="11.07" style="fill:url(#aaad26e4-3137-48e0-b5e7-309f1592f6e6)"/><path d="M215.08,391.51c0-1.56-2.36-7-10.27-7.22v14h10.27Z" transform="translate(-0.02)" style="fill:url(#a0243b63-217d-4a12-b8ce-e599c19a9e39)"/><rect x="204.8" y="412.61" width="10.28" height="12.65" style="fill:url(#a26f2138-5e57-4182-8e2c-109d95d54dfb)"/><rect x="302.21" y="400.15" width="10.28" height="11.07" style="fill:url(#b6f89453-9760-4971-820f-c562bf2cbd2a)"/><rect x="302.21" y="412.61" width="10.28" height="12.65" style="fill:url(#a2065529-5c4c-4be7-a44d-e34827f4bf14)"/><path d="M312.5,384.29c-7.11.49-10.27,5.79-10.27,7.2v6.8H312.5Z" transform="translate(-0.02)" style="fill:url(#ea867a34-aabb-48b6-a4a1-9683f5220c5a)"/><rect x="313.54" y="400.15" width="10.28" height="11.07" style="fill:url(#b592a0f6-6131-47c7-9e70-8fbb2dc265da)"/><path d="M323.83,391.51c0-1.56-2.37-7-10.27-7.22v14h10.27Z" transform="translate(-0.02)" style="fill:url(#b4204a4e-0bc5-4297-8d38-36a3397212b9)"/><rect x="313.54" y="412.61" width="10.28" height="12.65" style="fill:url(#a09717ef-603e-421b-a500-0543493db4e5)"/><rect x="302.21" y="461.31" width="10.28" height="11.07" style="fill:url(#a5fc863e-cb93-4175-927a-752bff70477d)"/><rect x="302.21" y="473.77" width="10.28" height="12.65" style="fill:url(#f3911ad8-a29e-48a9-94cc-e0f71d1c2d11)"/><rect x="313.54" y="461.31" width="10.28" height="11.07" style="fill:url(#bf5bb4fc-2f3e-4429-98c4-4c2f90a19152)"/><rect x="302.21" y="449.98" width="10.28" height="10.28" style="fill:url(#b676c9e3-07f9-412a-bb5d-ca4636bbfc5e)"/><rect x="313.54" y="449.98" width="10.28" height="10.28" style="fill:url(#b52e50bf-bdc3-4778-82c4-1929069d7491)"/><rect x="313.54" y="473.77" width="10.28" height="12.65" style="fill:url(#b8ec69ec-c85e-49e8-9ea2-4c104f2e2068)"/><rect x="193.48" y="461.31" width="10.28" height="11.07" style="fill:url(#a7d9e59e-8cfa-4209-b824-ebf8895b36cc)"/><rect x="193.48" y="473.77" width="10.28" height="12.65" style="fill:url(#ac5ab007-69d9-4005-b770-91b67bb0ef3e)"/><rect x="204.8" y="461.31" width="10.28" height="11.07" style="fill:url(#addaa72c-ba2b-4e47-add9-ea864cc111de)"/><rect x="193.48" y="449.98" width="10.28" height="10.28" style="fill:url(#a9854e97-01a4-4cf0-8c01-ec5670ea7753)"/><rect x="204.8" y="449.98" width="10.28" height="10.28" style="fill:url(#f7084611-80e2-4f61-9dde-867d91ac0d04)"/><rect x="204.8" y="473.77" width="10.28" height="12.65" style="fill:url(#fb09b11f-e2da-4157-bda1-3ecae3297a7a)"/><polygon points="226.32 497.18 245.3 497.18 245.3 454.49 270.33 454.49 270.33 497.18 289.32 497.18 289.32 439.79 226.32 439.79 226.32 497.18" style="fill:url(#a77ca3fa-1da3-4596-91c0-ba1718ab2975)"/><rect x="227.46" y="419.4" width="1.71" height="20.78" style="fill:url(#a191fa3e-9966-429a-9408-8ccecffb2262)"/><rect x="231.99" y="419.4" width="1.71" height="20.78" style="fill:url(#f0e02d2c-9def-460e-9066-21b6e7e7b34e)"/><rect x="234.25" y="419.4" width="1.71" height="20.78" style="fill:url(#fe071fff-85c3-40d6-a563-0d01caee00ab)"/><rect x="238.78" y="419.4" width="1.71" height="20.78" style="fill:url(#e1ff4cc8-a5e8-4254-a21f-105919b3d512)"/><rect x="243.31" y="419.4" width="1.71" height="20.78" style="fill:url(#ad3a7c9b-5ca5-4537-96d1-e84e76e000dc)"/><rect x="245.58" y="419.4" width="1.71" height="20.78" style="fill:url(#a5ca5e44-94a9-44b6-bf3c-23eb7ba23f85)"/><rect x="250.11" y="419.4" width="1.71" height="20.78" style="fill:url(#ac65a9ce-43d2-4d1d-9c82-c90783fd1c21)"/><rect x="254.64" y="419.4" width="1.71" height="20.78" style="fill:url(#ea3b1ea2-d448-44f8-ba23-d601967c8df9)"/><rect x="256.9" y="419.4" width="1.71" height="20.78" style="fill:url(#e5253204-3a59-4a01-8887-6870296ff76b)"/><rect x="261.44" y="419.4" width="1.71" height="20.78" style="fill:url(#a4db9b8d-95bb-4f55-8f9e-a105a1bc6d24)"/><rect x="265.97" y="419.4" width="1.71" height="20.78" style="fill:url(#af1f3fee-6c44-41d6-bfd6-3005cc3465e3)"/><rect x="270.5" y="419.4" width="1.71" height="20.78" style="fill:url(#f0e03e11-7510-4a95-9de3-8b10b7783fc7)"/><rect x="272.76" y="419.4" width="1.72" height="20.78" style="fill:url(#a4024a1e-cac7-42f1-9c21-79f96e4860a5)"/><rect x="277.29" y="419.4" width="1.72" height="20.78" style="fill:url(#af56e565-04f0-4655-88b4-4ac78a2844f6)"/><rect x="281.82" y="419.4" width="1.72" height="20.78" style="fill:url(#b40369f5-901e-4516-9af1-7f86527019d8)"/><rect x="284.09" y="419.4" width="1.71" height="20.78" style="fill:url(#e4b773fa-7125-49a1-8ee4-89c1a55cddd6)"/><rect x="288.62" y="419.4" width="1.71" height="20.78" style="fill:url(#ea61e0eb-8955-4154-97a5-d486b068d05e)"/><rect x="217.26" y="507.75" width="84.59" height="3.96" style="fill:url(#efb32ff7-ff7f-4038-8993-fe8e9462f491)"/><path d="M355.53,374.74V346.08L324.6,320.86H193.83l-30.92,25.22v28.66h9.85V500.81H169.6v21.35H348.85V500.81h-3.16V374.74Zm-8.26,127.65v18.18H309.08v-3.16H209.45v3.16H171.18V502.39h52.5v3.16h72.74v-3.16ZM246.61,418.91V395.32c0-.1.45-10.53,12.5-10.53,12.53,0,12.53,10.43,12.53,10.53v23.59h19V374.74H337l-.12,126.07H181.45V374.74h46.19v44.17Zm6.8-53.91a5.59,5.59,0,1,1,5.59,5.59h0A5.59,5.59,0,0,1,253.41,365Zm37.21,8.16v-5.72l-31.54-25.82-31.47,25.67v5.87H164.49V346.83l29.9-24.39H324.08L354,346.83v26.33Z" transform="translate(-0.02)" style="fill:url(#bc596ab8-dcd0-4506-bb6c-9bd460993f24)"/><polygon points="218.39 366.61 222.15 366.61 257.81 337.51 293.47 366.61 297.22 366.61 257.81 334.45 218.39 366.61" style="fill:url(#acdd7407-3c15-43cb-bf7a-ec3d24dcbb88)"/><polygon points="245.58 498.68 247.16 498.68 247.16 458.36 267.45 458.36 267.45 498.68 269.03 498.68 269.03 456.78 245.58 456.78 245.58 498.68" style="fill:url(#ae65d676-d680-41e8-bbe1-eba623aa64f8)"/><path d="M247.18,394c0-.33.88-8.16,10.14-8.16,9.65,0,10.13,7.8,10.15,8.09v23.72h1.61V393.93c0-.1-.54-9.64-11.73-9.64-10.69,0-11.71,9.5-11.72,9.67v23.72h1.58Z" transform="translate(-0.02)" style="fill:url(#a71269c0-c1b4-4000-83e3-51d3d87b377c)"/><path d="M313.89,405c11,.7-1.84-3.7-3.73,0C311.93,405.52,312.26,406.53,313.89,405Z" transform="translate(-0.02)" style="fill:url(#b0d69ce7-9920-473a-9f10-57f48f850dc2)"/><path d="M542.61,447.18c-5.07.48-5.76-3.41-8.76-5,1.33-4.17-.4-4.27,1.25-8.76-4.32,1-5.28-1.39-7.51-2.5-1.87,1.46-3,3.61-6.25,3.75.66-3.19,1.66-4.37-1.25-6.25-.37,1.11-3.38,5.48-3.75,2.5,5.78-5.46,1.25-10.46,3.75-16.26-3.63,1.14-7.19.93-8.76,0a2.51,2.51,0,0,0,0-5q.35,4.11-3.75,3.76c.12-4.67,1.41-3.57,0-7.51-6,2.19-6.47-.93-12.51,1.25.15-5.92-3.83.57-7.5-5-4.71,3.36-5.28,1.59-11.26,1.25.21,3.13-1.92,3.92-3.75,5-.25-6.92-1,.59-6.26-2.5.6,3.93-1.56,5.11-3.75,6.26v-5c-4.25,5.81-8.71-.47-16.26,5a6,6,0,0,0,1.25,3.75c-5.61.64-4.87,7.63-11.26,7.5-.28,2.22,1.26,6.27-2.5,5,2,4.1-.28,4.78,0,10a5.32,5.32,0,0,0-1.38-.1c-.17-.34-.34-.68-.54-1s-.49-.11-.83,0a17.77,17.77,0,0,0-3.44-2.6l-.08-.09.12-.12.51-.11c.15,0,.72-.27.59-.53a.28.28,0,0,0-.08-.23c.34-.14.62-.36.26-.54l-.59-.29a.41.41,0,0,0-.07-.15c-.28-.39-.92-.45-1.35-.54a1.14,1.14,0,0,0-.37.05v-.08c.15-.49-1.23-.29-1.37.18v.17h-.26a1,1,0,0,0-.95.47,2.51,2.51,0,0,0-.2.86l-.16.1c-.12.09-.4.31-.21.48a4.17,4.17,0,0,0,.44.33c.15.11.08.34.14.52s.64.22,1,.09l.34.17a4.05,4.05,0,0,0,0,1.3c.07.43.93.12,1.11,0a4,4,0,0,0,1.18-.86,20.37,20.37,0,0,1,3.36,3c-2.11,1.75-.84,6.89-4.54,7.05,2.17,6.9,1.06,3.95,0,11.26.76,2.16,5.93-.09,6.25,2.5-2.92,3.68-9.94,1.34-12.51,2.5-1.94,5.28,6.95-.27,5,5-.21,1.46-2,1.36-3.75,1.25-.49,4.23,5.53,2,3.75,7.5-1.69-.39-2.39-1.78-5-1.25-.25,4.57,2.85,6.1,1.26,10A27,27,0,0,0,432.53,486c-3.06,1.66,1.38,4.65-1.25,5-3.08-.16-6-.19-7.5,1.25-.32,3.65,2.35,4.32,3.75,6.26-2.37.28-2.76-1.41-5-1.25,1.79,8.36,11.63-4.07,16.26-5-2.25.17-2.93-1.24-2.51-3.75,1.85.65,3.16,1.85,5,2.51a4.7,4.7,0,0,0,.57-1.17,17.79,17.79,0,0,0,5.38,2.39,13.11,13.11,0,0,0-5.53,4.2c2.49,2.6,4.38-.93,6.25-2.51,5.29,0,13.36,2.69,19.23,1.83,1.63,2.49,3.29,5.17,6.16,5.88,1.63.4,1.82-.32,3.88.65a7.83,7.83,0,0,1,2.57,2.52l.27.37a7,7,0,0,1-.23,5.34,13.4,13.4,0,0,0-6,.48c-.79.06-1.58.13-2.36.21A50.11,50.11,0,0,0,458,512c-.25.06-1,.55-.36.62l2.8.27H455.2a23,23,0,0,0-2.35,0h-6.41a1.48,1.48,0,0,0-.86.41h-2.1c-.27,0-1.56.52-.9.52,1.93,0,3.86,0,5.78.08-.25.12-.51.22-.76.36-.81.46.39.74.87.47a8,8,0,0,1,2-.78c4.45.12,8.91.31,13.37.5a2.17,2.17,0,0,0,.5-.13c1.7,0,3.4-.12,5.09-.26-.4.19-.75.47-.12.41a142.09,142.09,0,0,1,14.88-.36c-1.28.13-2.55.28-3.83.46s-2.35.29-3.53.42l-5,.36c-.5,0-1.19.83-.34.8s1.47,0,2.2-.1a5.1,5.1,0,0,0,1.51-.14l1.18-.11,3.07-.22c3.69-.25,7.37-.42,11-.55a24.44,24.44,0,0,0,5.27-.08,32.1,32.1,0,0,0,5,0,1.19,1.19,0,0,0,.53-.23h7.31c.78,0,1.06-1,.13-1H503a.19.19,0,0,0-.12-.14,4.22,4.22,0,0,0-2.11-.71,4.88,4.88,0,0,1-.25-1c0-.4-1-.09-1.11,0-.53.3-1,.67-1.5,1a56.8,56.8,0,0,0-8.08-1.57c-.13-.57-.5-1.06-.57-1.63,0-.16-.3-.21-.42-.2a3,3,0,0,0-1.94.81,7.49,7.49,0,0,1-2.44-5.08c1.57-1.64,3.08-3.21,5.45-3.84,1.43-.39,2.7-.53,3.78-1.61a10.06,10.06,0,0,0,2-3.38c1.54,1.14,3.21,2.1,5.45-.28-.6,3.94,1.78,4.89,2.5,7.51,12.43-5.75,19.45-4.33,31.27-5,.81-4.57-.84-6.67-2.5-8.76-3.82-.49-6.37,3.29-7.51-1.25,5.45,1,6-3.65,2.5-5,6,.1,5.47-6.21,8.76-8.76-1.48-3.08-4.72,2.56-6.25-1.25,2.91-.42,5.38-1.28,6.25-3.76-4.22-1.19-8.54,3.84-11.26,0,6.86,2,11.68-4.7,6.26-7.5,3.75-2.5,7.81-4.7,10-8.75-1.47-.2-3.55.21-3.75-1.26C540,450.48,543.15,453.62,542.61,447.18ZM426.89,433.42l-.23-.24.36.18Zm34.41-16.26C467,418,460.3,424.73,461.3,417.16Zm-10,23.77c-1.06-.23-1.18.49-1.25,1.25-1.46-.2-1.05-2.28-1.25-3.75,2.12-.43,2.35,1,2.49,2.5Zm-8.75,43.78a6.47,6.47,0,0,0,6.09,4.15c.22.63.46,1.26.68,1.9l-.93-.17c0-.06,0-.11-.18-.11H448a39.65,39.65,0,0,1-4.19-.79l-1.11-.48a.31.31,0,0,0-.19,0L442,489c.07-1.79-1.53-2.82.53-4.26Zm6.93,6.54h0c-.37.13-.73.27-1.09.42l-2.53-1.09c1.22.23,2.41.42,3.61.67Zm-2.74.37a14.72,14.72,0,0,1-3.31-1.43c1.09.49,2.19,1,3.3,1.43Zm3.31-58.2c-1.23,3.84-3.33-1.43-5-1.24,1.22-3.84,3.33,1.43,5,1.24Zm-1.25,18.77c.21,2.71-4.44.56-6.25,1.25-.22-5.59,4.39-3.23,6.24-1.25Zm-17.51,20c3.91-3.23,7.41-1.94,11.26,0-3.81,2.45-8.27.64-11.27,0Zm1.25,10c2.71-4.57,6.54-8.19,12.54-6.19-.59,5.65-5.45,7.06-12.55,6.21Zm18.38,8.54v-1a7.77,7.77,0,0,1,.21-.93c1.88-.12,4-.38,6.39-.41-2.11.9-4.39,1.61-6.61,2.36Zm6.64-62.33C454.56,432.4,452.5,424,457.56,428.4Zm.42,64.21c-.25-2,1-2.62,1.22-4.2h.86c-1,1.64-.44,2.6.77,3.32a5,5,0,0,1-2.86.9Zm2.1-60.44c-3.39-1.13,2.86-2.8,2.5-5C466.67,429,460.42,430.7,460.08,432.17Zm32.52,55a4.22,4.22,0,0,1,.67,2c-.36,0-.78.21-.84.52-.19,1-.42,2-.71,3-2.31,2.48-6.65,4.36-9.13,5.7,2.4-4.59,8.49-5.61,10-11.18Zm-1.83,25.52c.06,0,.12-.1.18-.15a2.73,2.73,0,0,1,.69.14c-.32,0-.56.05-.9.05Zm-16.53-1.07,1.14.05-.21.13-.7.06h-.65a60.66,60.66,0,0,0-6.32.33h0c1.77-.23,3.55-.41,5.33-.57Zm-1.07.9h1.57l-1.8.11Zm2.66-.15,2.27-.08h.19l-.13.1-2.61.09.25-.07ZM486.08,502a1.14,1.14,0,0,0-.47.26l-.94.91a10,10,0,0,1,6.25-8A17.23,17.23,0,0,1,486.08,502Zm-17.23-6.61a3.74,3.74,0,0,1,1.14,2c-.46-.63-.9-1.28-1.34-1.94Zm8.63,5.81a3.46,3.46,0,0,0-1.27-.21,7.2,7.2,0,0,1-5-2.17c-.1-.1-.17-.22-.26-.32,1.66-.15,2.21-1.4,4.16-1.26a23.39,23.39,0,0,1,3.54,4.63,6.71,6.71,0,0,0-1.19-.69Zm-11.7,10.44h1.57l-1.59.2h-.55a1,1,0,0,0-.9.38.26.26,0,0,0,0,.21C456.08,512.16,463.57,511.7,465.78,511.64Zm-.59,1.45c-1.56.06-3.13.08-4.71,0,.89,0,1.78-.07,2.66-.12C463.82,513,464.51,513.07,465.19,513.09Zm11.33.29-.19.09-1.88.06Zm-.1.09a23.41,23.41,0,0,1,5.09-.05c-1.7,0-3.43,0-5.09.05Zm24.65.14h-.58l-.28-.13h.16a1.11,1.11,0,0,1,.71.13Zm-1.63-.87a2.69,2.69,0,0,0,.14.52L499,513Zm-11.36-2.47q.12.33.27.66H488c-.1-.06-.19-.14-.29-.21A2.86,2.86,0,0,1,488.08,510.27Zm2.7-9.87a14.56,14.56,0,0,0-2.54.92,18.84,18.84,0,0,0,4.11-6.57h.18a3.3,3.3,0,0,1,2.36.84c-.81,2.12-1.81,4.2-4.07,4.81Zm29.3-19.4C517.33,484.82,512.08,479.55,520.08,481Zm-8.76-50a3,3,0,0,1-5,2.5c.32-2.28,2.16-2.93,5-2.58Zm2.51,12.51c2,1.86,1.39,5.59-2.51,5-.23-1.06.49-1.18,1.26-1.25-2.08-3.2-3.37,4.88-7.51,3.75,2.65-2.86,4.53-6.39,8.77-7.58Zm-12.5,26.19c.52-2.39.45-5.39,3.75-5C504.55,467.09,504.63,470.08,501.33,469.7Zm5,32.52c-3.75-.82,1.19-2.68,0-5,3.11.18.37,4.23,0,5ZM507.58,466c.37-4.36,3.39.1,3.75-2.51,1.42.24.7,1.26,0,1.25.45,1.65,2.21,2,2.51,3.76C512.42,471.75,512.36,463.4,507.58,466Zm6.26,31.27c4-1.51,2.39-6.75-1.25-7.51,3.32-4,3.75,5.34,8.75,3.75a12.52,12.52,0,0,1-7.5,3.71ZM517.59,476c-3.76-1.87,4.29-2.23,3.75-5C525.8,473.51,518.28,474.42,517.59,476Zm8.76,6.26v2.5h-2.51v-2.5Z" transform="translate(-0.02)" style="fill:url(#b7f19816-4774-441b-97b4-41519845e26f)"/><path d="M587.73,592.7c-3.51,0-5.85.9-5.85,2.26-.59.68-9.37,4.31-99.53,4.08-58-.23-132.32-1.81-197.89-3.4-129.39-2.94-179.16-3.85-187.94-.45-1.76.68-2.34,1.36-2.34,2,0,1.36,2.34,2.26,5.85,2.26a10.59,10.59,0,0,0,5.27-1.13c12.88-2,101.29,0,179.16,1.81,84.89,2,157.49,3.4,210.77,3.4,50.94,0,84.89-1.36,94.85-5,3.51-1.13,4.09-2.49,4.09-3.4C593.59,593.83,591.25,592.7,587.73,592.7Z" transform="translate(-0.02)" style="fill:url(#e33ddb36-46ef-41d3-9286-e9d7a79786a3)"/><path d="M142.93,637.69a9.12,9.12,0,0,1-6.89-2.83,11.62,11.62,0,0,1,0-14.75,9,9,0,0,1,6.89-2.82h0a11.17,11.17,0,0,1,6.46,1.91h0l.53,3.95h-.24a6.23,6.23,0,0,0-2.35-3.71,7.13,7.13,0,0,0-4.4-1.31h0a6.66,6.66,0,0,0-5.45,2.58,12,12,0,0,0,0,13.55,6.77,6.77,0,0,0,5.45,2.59h0a8.51,8.51,0,0,0,6-2.43h0v-5a1.17,1.17,0,0,0-.35-.94,1.46,1.46,0,0,0-1-.33h-.42v-.28h5.2v.28H152a1.41,1.41,0,0,0-1,.33,1.16,1.16,0,0,0-.32.94h0V634a8.06,8.06,0,0,1-4.2,3,10.44,10.44,0,0,1-3.5.57ZM170,637h.21v.28h-5.44V637H165a.89.89,0,0,0,.77-.36A1.19,1.19,0,0,0,166,636a1.94,1.94,0,0,0-.11-.63h0l-1.46-3.73h-6.72l-1.46,3.65a2,2,0,0,0-.13.68,1.19,1.19,0,0,0,.27.7.89.89,0,0,0,.79.38h.21v.28h-5.07V637h.22a1.89,1.89,0,0,0,1.12-.4,3.05,3.05,0,0,0,1-1.22h0q5.81-13.12,6-13.73h0a7.13,7.13,0,0,0,.48-1.57h.24l6.55,15.3c.52,1.1,1.2,1.62,2.05,1.62Zm-8.84-13.93-3.07,7.68h6Zm15.34-1.73h-1.41v14.15a1.49,1.49,0,0,0,.74,1.32h0a1.49,1.49,0,0,0,.77.19h.34v.28h-5.44V637h.37a1.49,1.49,0,0,0,1.49-1.48h0V622.23a1.36,1.36,0,0,0-.44-1,1.43,1.43,0,0,0-1-.42h-.37v-.28h6.66a6,6,0,0,1,3.95,1.2,3.93,3.93,0,0,1,1.44,3.17,4.76,4.76,0,0,1-1.17,3.28,4.41,4.41,0,0,1-3,1.51h0a5.93,5.93,0,0,1,2,2.19h0s.29.41.92,1.23,1.13,1.46,1.51,1.92.62.68.95,1h0a3.1,3.1,0,0,0,2.25,1h0v.28h-.82a5.48,5.48,0,0,1-3.29-.87h0a8.29,8.29,0,0,1-1.65-1.59h0l-1.34-2L178.75,631h0c-1-1.25-1.85-1.88-2.68-1.88h0v-.28a11.22,11.22,0,0,0,3.74-.34h0a3,3,0,0,0,1.2-1h0a4.73,4.73,0,0,0,.66-2.46h0a3.51,3.51,0,0,0-1-2.64,3.82,3.82,0,0,0-2.57-1h0c-.45,0-1,0-1.61,0Zm29.08,7.54h0a8.25,8.25,0,0,1-2.3,6.15,8.52,8.52,0,0,1-6.19,2.25h-8.9V637h.34a1.38,1.38,0,0,0,1.06-.45,1.55,1.55,0,0,0,.45-1.06h0V622.28a1.5,1.5,0,0,0-1.49-1.51h-.36v-.28h8.9a9.47,9.47,0,0,1,4.53,1,7,7,0,0,1,3,2.91A9.35,9.35,0,0,1,205.57,628.9Zm-8.49-7.57H191.8v15.13h5.28a6.1,6.1,0,0,0,4.83-2,8.09,8.09,0,0,0,1.78-5.53h0a8.11,8.11,0,0,0-1.78-5.54,6.1,6.1,0,0,0-4.83-2ZM208,637h.38a1.47,1.47,0,0,0,1.07-.43,1.55,1.55,0,0,0,.47-1.05h0V622.23a1.33,1.33,0,0,0-.46-1,1.5,1.5,0,0,0-1.08-.42H208v-.28h7.76a9.43,9.43,0,0,0,1.91-.17,6.36,6.36,0,0,0,1.06-.28h0v3.19h-.29v-.42a1.53,1.53,0,0,0-.37-1,1.23,1.23,0,0,0-1-.42H211.5v7.11h4.58a1,1,0,0,0,.81-.33,1.29,1.29,0,0,0,.28-.84h0V627h.29v3.93h-.29v-.37a1.07,1.07,0,0,0-.56-1.06h0a1.35,1.35,0,0,0-.45-.11h-4.62v7.11h4.17a4.3,4.3,0,0,0,2-.45A3.56,3.56,0,0,0,219,635a9.2,9.2,0,0,0,.89-1.63h.26l-1.46,4H208Zm32.79-16.25h-.45a1.37,1.37,0,0,0-1,.41,1.41,1.41,0,0,0-.45,1h0V634.1a24.37,24.37,0,0,0,.19,3.08h0l.05.5h-.24l-13.76-13.8v11.68A1.43,1.43,0,0,0,226.5,637H227v.28h-5V637h.45a1.4,1.4,0,0,0,1-.42,1.38,1.38,0,0,0,.42-1h0v-12a22.2,22.2,0,0,0-.18-3.05h0l-.06-.45h.29l13.78,13.7V622.17a1.47,1.47,0,0,0-.47-1,1.37,1.37,0,0,0-1-.41h-.45v-.28h5Zm26.42,8.13h0a8.21,8.21,0,0,1-2.3,6.15,8.49,8.49,0,0,1-6.22,2.25h-8.87V637h.31a1.41,1.41,0,0,0,1.06-.45,1.67,1.67,0,0,0,.45-1.06h0V622.28a1.5,1.5,0,0,0-.47-1.09,1.48,1.48,0,0,0-1.07-.42h-.32v-.28h8.87a9.55,9.55,0,0,1,4.52,1,7,7,0,0,1,3,2.91,9.28,9.28,0,0,1,1,4.5Zm-8.52-7.57h-5.29v15.13h5.29a6.1,6.1,0,0,0,4.83-2,8.09,8.09,0,0,0,1.78-5.53h0a8.11,8.11,0,0,0-1.78-5.54,6.1,6.1,0,0,0-4.83-2ZM269.55,637h.37a1.51,1.51,0,0,0,1.08-.43,1.54,1.54,0,0,0,.46-1.05h0V622.23a1.37,1.37,0,0,0-.45-1,1.52,1.52,0,0,0-1.09-.42h-.37v-.28h7.75a9.43,9.43,0,0,0,1.91-.17,6.74,6.74,0,0,0,1.07-.28h0v3.19H280v-.42a1.41,1.41,0,0,0-.37-1,1.21,1.21,0,0,0-.95-.42h-5.53v7.11h4.54a1,1,0,0,0,.81-.33,1.29,1.29,0,0,0,.28-.84h0V627h.32v3.93h-.29v-.37a1.07,1.07,0,0,0-.55-1.06h0a1.47,1.47,0,0,0-.46-.11h-4.62v7.11h4.17a4.33,4.33,0,0,0,2.06-.45,3.52,3.52,0,0,0,1.27-1.06,9.2,9.2,0,0,0,.89-1.63h.27l-1.46,4H269.55Zm14.58-.64h0a8.86,8.86,0,0,1,.29-3.46h.32a4.34,4.34,0,0,0,0,.51h0a3.41,3.41,0,0,0,.95,2.48,3.48,3.48,0,0,0,2.61,1h0A4,4,0,0,0,291,636a2.81,2.81,0,0,0,1-2.21,3,3,0,0,0-1-2.26h0l-5.31-4.32a4,4,0,0,1-1.27-3.08h0a3.81,3.81,0,0,1,.57-2,4.16,4.16,0,0,1,1.59-1.47,5.11,5.11,0,0,1,2.4-.54,10.62,10.62,0,0,1,2.45.25h.87l.06,3h-.32a2.22,2.22,0,0,0-.77-1.82,3.32,3.32,0,0,0-2.2-.64,3.55,3.55,0,0,0-2.36.77,2.45,2.45,0,0,0-.93,2,2.74,2.74,0,0,0,1,2.11h0l5.37,4.37a3.74,3.74,0,0,1,1.22,3,4.35,4.35,0,0,1-1.37,3.23,4.6,4.6,0,0,1-3.33,1.31h0a10.35,10.35,0,0,1-2.6-.33,4.54,4.54,0,0,1-2-1Zm12.18.64h.37a1.85,1.85,0,0,0,1.25-.45,1.33,1.33,0,0,0,.53-1.06h0V622.28a1.33,1.33,0,0,0-.53-1.06,1.9,1.9,0,0,0-1.27-.45h-.35v-.28h6v.28H302a1.92,1.92,0,0,0-1.24.42,1.47,1.47,0,0,0-.57,1h0V635.5a1.4,1.4,0,0,0,.56,1A1.9,1.9,0,0,0,302,637h.34v.28h-6Zm17.1.67a9.1,9.1,0,0,1-6.33-15.21,8.36,8.36,0,0,1,6.13-2.36,11.58,11.58,0,0,1,6.39,1.68h0l.58,4h-.24a5.94,5.94,0,0,0-2.16-3.65,7.57,7.57,0,0,0-4.54-1.17,6,6,0,0,0-4.78,2.14,10,10,0,0,0,0,11.63,6.43,6.43,0,0,0,5.14,2.14,7.58,7.58,0,0,0,5.64-2.43h0v-3.73a.93.93,0,0,0-.31-.8,1.31,1.31,0,0,0-.91-.29h-.38v-.28h4.86v.28h-.37c-.79,0-1.19.37-1.19,1.12h0v3.36a9.78,9.78,0,0,1-3.07,2.54,9.25,9.25,0,0,1-4.5,1.07Zm29.42-16.92h-.45a1.34,1.34,0,0,0-1,.41,1.36,1.36,0,0,0-.45,1h0V634.1a26.38,26.38,0,0,0,.18,3.08h0l.05.5h-.23l-13.85-13.8v11.68a1.38,1.38,0,0,0,.42,1,1.4,1.4,0,0,0,1,.42H329v.28h-5V637h.45a1.45,1.45,0,0,0,1.47-1.43v0h0v-12a23.9,23.9,0,0,0-.19-3h0V620H326l13.78,13.7V622.17a1.53,1.53,0,0,0-.48-1,1.34,1.34,0,0,0-1-.41h-.45v-.28h5Zm24.61,6h-.36a.93.93,0,0,0-.78.3.9.9,0,0,0-.23.56,6.42,6.42,0,0,0,.12.88,8.88,8.88,0,0,1,.12,1.63h0a8.44,8.44,0,0,1-1,4h0c.64.58,1.14,1,1.51,1.33a9.19,9.19,0,0,0,1.46,1A4.26,4.26,0,0,0,370,637h0v.28h-1.63a4.78,4.78,0,0,1-.76-.09l-.77-.19a3.19,3.19,0,0,1-.85-.3h0a7.62,7.62,0,0,1-1.67-1h0a6.6,6.6,0,0,1-4.92,1.93h0a9.38,9.38,0,0,1-6-1.71,5.88,5.88,0,0,1-2.12-4.85h0a5.54,5.54,0,0,1,3.21-5.18h0a7.27,7.27,0,0,1-1-3.75h0a4.47,4.47,0,0,1,1.44-3.42h0a5.48,5.48,0,0,1,3.9-1.38h0a6.36,6.36,0,0,1,2.58.55,5.08,5.08,0,0,1,1.93,1.44h0l-.47,3.17h-.27a4.55,4.55,0,0,0-1-3.17h0a3.46,3.46,0,0,0-2.65-1.15,3.31,3.31,0,0,0-2.6,1.13,4,4,0,0,0-1,2.8,5.59,5.59,0,0,0,1,3.16,27,27,0,0,0,3.78,4.14q2.87,2.69,4.19,3.87h0a6.62,6.62,0,0,0,.56-2.67,6.11,6.11,0,0,0-.57-2.59,1.82,1.82,0,0,0-1.69-1.22h-.39v-.28h5.28Zm-4.12,8h0q-6.79-5.92-8.49-8.33h0a5.88,5.88,0,0,0-1.7,4.39,5.66,5.66,0,0,0,1.63,4.27,6.28,6.28,0,0,0,4.55,1.57h0a5,5,0,0,0,4-1.86Zm33.59,2.2h.4v.28h-5.53V637h.4a1,1,0,0,0,.71-.32.92.92,0,0,0,.25-.77h0l-1.38-11.55-5,10.43a13,13,0,0,0-.93,2.85h-.26l-6.4-13L378,636a1,1,0,0,0,.25.75,1,1,0,0,0,.73.34h.38v.25h-4.92V637h.4a1.72,1.72,0,0,0,1.49-.73h0a1.84,1.84,0,0,0,.32-.87h0l2.07-15.32H379l7,14.23,6.77-14.23H393l2.12,15.4a1.74,1.74,0,0,0,.61,1.12A1.81,1.81,0,0,0,396.91,637ZM415,637h.21v.28h-5.44V637H410a.92.92,0,0,0,.77-.36,1.28,1.28,0,0,0,.31-.64,1.93,1.93,0,0,0-.1-.63h0l-1.46-3.73H402.8l-1.46,3.65a2,2,0,0,0-.13.68,1.28,1.28,0,0,0,.26.7.89.89,0,0,0,.8.38h.21v.28h-5.07V637h.21a1.94,1.94,0,0,0,1.13-.4,3,3,0,0,0,.94-1.22h0q5.82-13.12,6.06-13.73h0a6.61,6.61,0,0,0,.47-1.57h.24l6.56,15.3A2.19,2.19,0,0,0,415,637Zm-8.85-13.93-3.09,7.7h6.05ZM416.56,637h.37a1.85,1.85,0,0,0,1.25-.45,1.36,1.36,0,0,0,.53-1.06h0V622.28a1.36,1.36,0,0,0-.53-1.06,1.93,1.93,0,0,0-1.28-.45h-.34v-.28h6v.28h-.35a1.89,1.89,0,0,0-1.23.42,1.43,1.43,0,0,0-.57,1h0V635.5a1.41,1.41,0,0,0,.55,1,1.9,1.9,0,0,0,1.25.43h.35v.28h-6Zm27.21-16.25h-.45a1.34,1.34,0,0,0-1,.41,1.41,1.41,0,0,0-.45,1h0V634.1a26.38,26.38,0,0,0,.18,3.08h0l.06.5h-.24l-13.79-13.8v11.68a1.35,1.35,0,0,0,.43,1,1.38,1.38,0,0,0,1,.42H430v.28h-5V637h.45a1.38,1.38,0,0,0,1-.42,1.35,1.35,0,0,0,.43-1h0v-12a20.73,20.73,0,0,0-.19-3.05h0l0-.45h.29l13.78,13.7V622.17a1.53,1.53,0,0,0-.48-1,1.34,1.34,0,0,0-1-.41h-.45v-.28h5Zm14.28.53h-4.8v14.24a1.45,1.45,0,0,0,.79,1.29h0a1.49,1.49,0,0,0,.77.19h.3v.28h-5.47V637H450a1.46,1.46,0,0,0,1.08-.45,1.58,1.58,0,0,0,.48-1.06h0V621.3h-4.8a1.2,1.2,0,0,0-1,.42,1.47,1.47,0,0,0-.36,1h0v.45h-.28V620a5.94,5.94,0,0,0,1.5.34c.64.07,1.13.11,1.44.11h8.66a7.85,7.85,0,0,0,3-.45h0v3.17h-.29v-.45a1.48,1.48,0,0,0-.37-1,1.23,1.23,0,0,0-1-.42ZM461.5,637h.38a1.47,1.47,0,0,0,1.07-.43,1.55,1.55,0,0,0,.47-1.05h0V622.23a1.33,1.33,0,0,0-.46-1,1.5,1.5,0,0,0-1.08-.42h-.38v-.28h7.76a9.43,9.43,0,0,0,1.91-.17,6.36,6.36,0,0,0,1.06-.28h0v3.19h-.29v-.42a1.53,1.53,0,0,0-.37-1,1.23,1.23,0,0,0-1-.42h-5.49v7.11h4.54a1,1,0,0,0,.81-.33,1.29,1.29,0,0,0,.28-.84h0V627H471v3.93h-.29v-.37a1.07,1.07,0,0,0-.56-1.06h0a1.35,1.35,0,0,0-.45-.11h-4.62v7.11h4.17a4.3,4.3,0,0,0,2.05-.45,3.56,3.56,0,0,0,1.28-1.06,9.2,9.2,0,0,0,.89-1.63h.26l-1.46,4H461.5Zm32.79-16.25h-.45a1.37,1.37,0,0,0-1,.41,1.41,1.41,0,0,0-.45,1h0V634.1a22.64,22.64,0,0,0,.19,3.08h0v.5h-.24l-13.8-13.81v11.68A1.43,1.43,0,0,0,480,637h.45v.28h-5V637h.45a1.4,1.4,0,0,0,1-.42,1.38,1.38,0,0,0,.42-1h0v-12a22.2,22.2,0,0,0-.18-3.05h0l-.06-.45h.29l13.78,13.7V622.17a1.47,1.47,0,0,0-.47-1,1.39,1.39,0,0,0-1-.41h-.45v-.28h5ZM512.75,637H513v.28h-5.44V637h.21a.92.92,0,0,0,.77-.36,1.25,1.25,0,0,0,.26-.69,1.93,1.93,0,0,0-.1-.63h0l-1.46-3.73h-6.72L499,635.24a2,2,0,0,0-.13.68,1.18,1.18,0,0,0,.26.7.89.89,0,0,0,.8.38h.21v.28h-5.08V637h.21a1.94,1.94,0,0,0,1.13-.4,3,3,0,0,0,.94-1.22h0q5.82-13.12,6.06-13.73h0a6.61,6.61,0,0,0,.47-1.57h.24l6.56,15.3C511.21,636.48,511.9,637,512.75,637Zm-8.85-13.93-3.08,7.68h6.06Zm28.68-2.32h-.45a1.34,1.34,0,0,0-1,.41,1.36,1.36,0,0,0-.45,1h0V634.1a26.38,26.38,0,0,0,.18,3.08h0l.06.5h-.24l-13.81-13.81v11.68a1.35,1.35,0,0,0,.43,1,1.38,1.38,0,0,0,1,.42h.45v.28h-5V637h.46a1.45,1.45,0,0,0,1.46-1.44v0h0v-12a23.9,23.9,0,0,0-.19-3h0V620h.29l13.78,13.7V622.17a1.53,1.53,0,0,0-.48-1,1.34,1.34,0,0,0-1-.41h-.45v-.28h5Zm10.88,16.92a8.8,8.8,0,0,1-.59-17.59h.59a12.83,12.83,0,0,1,3.32.44,10.2,10.2,0,0,1,2.9,1.24h0l.58,4H550c-.76-3.22-3-4.82-6.58-4.82h0a6.23,6.23,0,0,0-5,2.13,8.59,8.59,0,0,0-1.84,5.83h0a9.85,9.85,0,0,0,.83,4.18,6.16,6.16,0,0,0,2.39,2.76h0a6.65,6.65,0,0,0,3.63,1,9.2,9.2,0,0,0,3.63-.66,5.9,5.9,0,0,0,2.57-2.17,7.41,7.41,0,0,0,1.16-3.76h.27l-.3,3.84a7.19,7.19,0,0,1-3,2.65,9.73,9.73,0,0,1-4.3,1Zm10.09-.67h.37a1.45,1.45,0,0,0,1.08-.43,1.5,1.5,0,0,0,.46-1.05h0V622.23a1.37,1.37,0,0,0-.45-1,1.52,1.52,0,0,0-1.09-.42h-.37v-.28h7.75a9.52,9.52,0,0,0,1.92-.17,6.36,6.36,0,0,0,1.06-.28h0v3.19H564v-.42a1.47,1.47,0,0,0-.38-1,1.21,1.21,0,0,0-1-.42h-5.52v7.11h4.54a1,1,0,0,0,.81-.33,1.34,1.34,0,0,0,.27-.84h0V627h.3v3.93h-.3v-.37a1.07,1.07,0,0,0-.55-1.06h0a1.35,1.35,0,0,0-.45-.11h-4.62v7.11h4.16a4.33,4.33,0,0,0,2.06-.45,3.64,3.64,0,0,0,1.28-1.06,9.2,9.2,0,0,0,.89-1.63h.26l-1.46,4H553.55Z" transform="translate(-0.02)" style="fill:url(#a0e4a336-4d8e-405e-a73f-4ae16397a6d7)"/><path d="M128.08,543.29a3.12,3.12,0,0,0-3.1,3v25.8a42.09,42.09,0,0,0,.35,5.5l.1.9H125l-27.25-29.1v24.9a2.87,2.87,0,0,0,1.55,2.6,3,3,0,0,0,1.5.4h1v.5H91.38v-.5h1a3,3,0,0,0,2.15-.87,2.94,2.94,0,0,0,.9-2.18v-26a38.27,38.27,0,0,0-.35-5.45l-.1-.8h.5l27.25,29.1v-24.8a3.09,3.09,0,0,0-1-2.17,3,3,0,0,0-2.15-.88h-1v-.5h10.3v.5Z" transform="translate(-0.02)" style="fill:#fff"/><path d="M170.93,577.29h.4v.5H161.08v-.5h.4a1.7,1.7,0,0,0,1.45-.65,2,2,0,0,0,.5-1.22,3.32,3.32,0,0,0-.2-1.13l-2.75-6.65H147.83l-2.75,6.5a3.46,3.46,0,0,0-.25,1.23,2.19,2.19,0,0,0,.5,1.25,1.75,1.75,0,0,0,1.5.67h.4v.5h-9.55v-.5h.4a3.78,3.78,0,0,0,2.12-.72,5.33,5.33,0,0,0,1.78-2.18q11-23.4,11.4-24.5a11.45,11.45,0,0,0,.9-2.8h.45l12.35,27.3C168.08,576.33,169.33,577.29,170.93,577.29Zm-22.45-11.15h11.4l-5.6-13.7Z" transform="translate(-0.02)" style="fill:#fff"/><path d="M191.18,549.24v25.4a2.51,2.51,0,0,0,1.5,2.3,2.93,2.93,0,0,0,1.45.35h.55v.5h-10.3v-.5h.6a2.85,2.85,0,0,0,2.05-.8,2.66,2.66,0,0,0,.9-1.9V549.24h-9.05a2.29,2.29,0,0,0-1.8.76,2.55,2.55,0,0,0-.68,1.8v.8h-.55V547a10.9,10.9,0,0,0,2.83.6,24.7,24.7,0,0,0,2.72.2h16.3a15.43,15.43,0,0,0,5.6-.8v5.65h-.55v-.8a2.55,2.55,0,0,0-.7-1.8,2.35,2.35,0,0,0-1.8-.75Z" transform="translate(-0.02)" style="fill:#fff"/><path d="M244.73,548.29H244a2.33,2.33,0,0,0-2,1.05,2.11,2.11,0,0,0-.35,1v16.85a10.59,10.59,0,0,1-3.33,8.23q-3.31,3-9.12,3t-9.15-3a10.46,10.46,0,0,1-3.35-8.2V550.44a2,2,0,0,0-.7-1.52,2.43,2.43,0,0,0-1.7-.63h-.75v-.5H223v.5h-.75a2.43,2.43,0,0,0-1.7.63,2,2,0,0,0-.7,1.52v16.25a11.1,11.1,0,0,0,2.47,7.65,8.85,8.85,0,0,0,7,2.8,9.94,9.94,0,0,0,7.25-2.65,9.6,9.6,0,0,0,2.73-7.25v-16.8a2.13,2.13,0,0,0-.73-1.55,2.39,2.39,0,0,0-1.67-.6h-.75v-.5h8.6Z" transform="translate(-0.02)" style="fill:#fff"/><path d="M266.08,549.34h-2.65v25.25a2.67,2.67,0,0,0,1.4,2.35,2.93,2.93,0,0,0,1.45.35h.65v.5h-10.2v-.5h.7a2.77,2.77,0,0,0,2-.77,2.49,2.49,0,0,0,.83-1.88V550.89a2.38,2.38,0,0,0-.83-1.85,2.83,2.83,0,0,0-2-.75h-.7v-.5h12.55a11.64,11.64,0,0,1,7.42,2.15,6.84,6.84,0,0,1,2.73,5.65,8.18,8.18,0,0,1-2.2,5.85,8.57,8.57,0,0,1-5.6,2.7q1.61.71,3.85,3.9c2.25,3.19.54.74,1.72,2.2s2.14,2.61,2.85,3.43a24.15,24.15,0,0,0,1.78,1.87,6,6,0,0,0,4.25,1.75v.5h-1.55a10.79,10.79,0,0,1-6.2-1.55,14.23,14.23,0,0,1-3.1-2.85c-.2-.26-1-1.44-2.53-3.52l-2.37-3.33q-2.7-3.35-5.05-3.35v-.5q5.85,0,7.05-.6a5.5,5.5,0,0,0,2.25-1.8,8.15,8.15,0,0,0,1.25-4.4,6.07,6.07,0,0,0-1.8-4.7,7.44,7.44,0,0,0-4.85-1.8C268.28,549.36,267.25,549.34,266.08,549.34Z" transform="translate(-0.02)" style="fill:#fff"/><path d="M325.83,577.29h.4v.5H316v-.5h.4a1.7,1.7,0,0,0,1.45-.65,2,2,0,0,0,.5-1.22,3.32,3.32,0,0,0-.2-1.13l-2.75-6.65H302.73l-2.75,6.5a3.46,3.46,0,0,0-.25,1.23,2.19,2.19,0,0,0,.5,1.25,1.75,1.75,0,0,0,1.5.67h.4v.5h-9.55v-.5h.4a3.78,3.78,0,0,0,2.12-.72,5.33,5.33,0,0,0,1.78-2.18q11-23.4,11.4-24.5a11.45,11.45,0,0,0,.9-2.8h.45L322,574.39C323,576.33,324.23,577.29,325.83,577.29Zm-22.45-11.15h11.4l-5.6-13.7Z" transform="translate(-0.02)" style="fill:#fff"/><path d="M379.83,552.44a9.5,9.5,0,0,1-.9,4.1,9.31,9.31,0,0,1-5.8,5,7.89,7.89,0,0,1-2.5.5,11.53,11.53,0,0,1-5.35-1.15v-.5a9.69,9.69,0,0,0,6.75-.8,7.37,7.37,0,0,0,3.75-4.6,6.85,6.85,0,0,0,.3-1.9V552a8.78,8.78,0,0,0-1.85-5.57,6.07,6.07,0,0,0-4.9-2.08h-5.75v29.85a3.23,3.23,0,0,0,1,2.23,3,3,0,0,0,2.23.92h.65v.5h-11v-.5h.65a3,3,0,0,0,2.22-.92,3.23,3.23,0,0,0,1-2.23v-28a3.21,3.21,0,0,0-1-2.07,3.1,3.1,0,0,0-2.15-.83h-.6l-.05-.5h13.05a10.57,10.57,0,0,1,7.55,2.58A9.24,9.24,0,0,1,379.83,552.44Z" transform="translate(-0.02)" style="fill:#fff"/><path d="M392.78,577.29a2.81,2.81,0,0,0,2-.77,2.65,2.65,0,0,0,.88-1.88V550.89a2.37,2.37,0,0,0-.85-1.85,3,3,0,0,0-2-.75h-.73v-.5h14.6a19.73,19.73,0,0,0,3.6-.3,10.65,10.65,0,0,0,2-.5v5.7l-.55-.05v-.75a2.55,2.55,0,0,0-.7-1.8,2.35,2.35,0,0,0-1.8-.75h-10.4V562h8.55a1.89,1.89,0,0,0,1.52-.6,2.18,2.18,0,0,0,.53-1.5v-.65H410v7h-.55v-.65a1.91,1.91,0,0,0-1.05-1.9,3.51,3.51,0,0,0-.85-.2h-8.7v12.7h7.85a8.46,8.46,0,0,0,3.87-.8,6.65,6.65,0,0,0,2.4-1.9,17.1,17.1,0,0,0,1.68-2.9h.5l-2.75,7.15h-20.3v-.5Z" transform="translate(-0.02)" style="fill:#fff"/><path d="M435.73,549.34h-2.65v25.25a2.67,2.67,0,0,0,1.4,2.35,2.93,2.93,0,0,0,1.45.35h.65v.5h-10.2v-.5h.7a2.77,2.77,0,0,0,2-.77,2.49,2.49,0,0,0,.83-1.88V550.89a2.4,2.4,0,0,0-.83-1.89,2.83,2.83,0,0,0-2-.75h-.7v-.5h12.55a11.64,11.64,0,0,1,7.42,2.15,6.84,6.84,0,0,1,2.73,5.65,8.18,8.18,0,0,1-2.2,5.85,8.57,8.57,0,0,1-5.6,2.7q1.61.71,3.85,3.9c2.25,3.19.54.74,1.72,2.2s2.14,2.61,2.85,3.43a24.15,24.15,0,0,0,1.78,1.87,6,6,0,0,0,4.25,1.75v.5h-1.55a10.79,10.79,0,0,1-6.2-1.55,14.23,14.23,0,0,1-3.1-2.85c-.2-.26-1-1.44-2.53-3.52L440,566.5q-2.7-3.35-5-3.35v-.5q5.85,0,7-.6a5.5,5.5,0,0,0,2.25-1.8,8.15,8.15,0,0,0,1.25-4.4,6.07,6.07,0,0,0-1.8-4.7,7.44,7.44,0,0,0-4.85-1.8C437.93,549.36,436.9,549.34,435.73,549.34Z" transform="translate(-0.02)" style="fill:#fff"/><path d="M485.08,551.89a2.37,2.37,0,0,0-1.45-2.35,2.87,2.87,0,0,0-1-.2H472.08V562h8.7a1.84,1.84,0,0,0,1.5-.6,2.27,2.27,0,0,0,.5-1.5v-.65h.6v7h-.6v-.65a2,2,0,0,0-.8-1.75,2.27,2.27,0,0,0-1.1-.35h-8.8v11a2.75,2.75,0,0,0,1.2,2.2,3,3,0,0,0,1.75.5h.7v.5h-10.5v-.5h.7a2.9,2.9,0,0,0,2-.77,2.58,2.58,0,0,0,.9-1.88V550.89a2.44,2.44,0,0,0-1.45-2.25,3.4,3.4,0,0,0-1.5-.35h-.7v-.5H480a22.87,22.87,0,0,0,3.2-.25,10.24,10.24,0,0,0,2.45-.55v5.7l-.55-.05Z" transform="translate(-0.02)" style="fill:#fff"/><path d="M499.58,577.29a2.81,2.81,0,0,0,2-.77,2.65,2.65,0,0,0,.88-1.88V550.89a2.37,2.37,0,0,0-.85-1.85,3,3,0,0,0-2-.75h-.7v-.5h14.6a19.73,19.73,0,0,0,3.6-.3,10.65,10.65,0,0,0,2-.5v5.7l-.55-.05v-.75a2.55,2.55,0,0,0-.7-1.8,2.35,2.35,0,0,0-1.8-.75h-10.4V562h8.55a1.89,1.89,0,0,0,1.52-.6,2.18,2.18,0,0,0,.53-1.5v-.65h.55v7h-.55v-.65a1.91,1.91,0,0,0-1-1.9,3.51,3.51,0,0,0-.85-.2h-8.7v12.7h7.85a8.46,8.46,0,0,0,3.87-.8,6.65,6.65,0,0,0,2.4-1.9,17.1,17.1,0,0,0,1.68-2.9h.5l-2.75,7.15H498.88v-.5Z" transform="translate(-0.02)" style="fill:#fff"/><path d="M537.85,574.24q-4.43-4.2-4.42-11.47t4.42-11.48q4.42-4.2,12.08-4.2a25.81,25.81,0,0,1,6.25.8,20.3,20.3,0,0,1,5.45,2.2l1.1,7.1h-.45q-2.16-8.6-12.4-8.6a12.06,12.06,0,0,0-9.4,3.8q-3.4,3.81-3.4,10.4a16.91,16.91,0,0,0,1.55,7.48,11.27,11.27,0,0,0,4.5,4.92,13.15,13.15,0,0,0,6.85,1.75,18.24,18.24,0,0,0,6.82-1.17,10.8,10.8,0,0,0,4.85-3.88,12.65,12.65,0,0,0,2.18-6.7h.45l-.6,6.81a13.15,13.15,0,0,1-5.65,4.73,19,19,0,0,1-8.1,1.72Q542.28,578.45,537.85,574.24Z" transform="translate(-0.02)" style="fill:#fff"/><path d="M589.78,549.24v25.4a2.51,2.51,0,0,0,1.5,2.3,2.91,2.91,0,0,0,1.45.35h.55v.5H583v-.5h.6a2.86,2.86,0,0,0,2-.8,2.76,2.76,0,0,0,.9-1.9V549.24h-9a2.35,2.35,0,0,0-1.83.75,2.55,2.55,0,0,0-.67,1.8v.8h-.55v-5.65a10.92,10.92,0,0,0,2.82.6,25.06,25.06,0,0,0,2.73.2h16.3a15.43,15.43,0,0,0,5.6-.8v5.65h-.55v-.8a2.56,2.56,0,0,0-.7-1.8,2.35,2.35,0,0,0-1.8-.75Z" transform="translate(-0.02)" style="fill:#fff"/></svg>