<svg xmlns="http://www.w3.org/2000/svg" viewBox="0 0 313.62 147.56" width="30"><g id="e0f02080-ae83-4c2e-8c91-ee4f9631798d" data-name="Calque 2"><g id="b79a1e8a-4f88-4312-8ab1-12a59ca2e575" data-name="Calque 1"><path d="M269.79,43.22a43,43,0,0,1-12.67,30.56L196,134.89a43.19,43.19,0,0,1-61.12,0,43.2,43.2,0,0,0-61.11,0A43.21,43.21,0,1,1,12.66,73.78L73.78,12.66a43.2,43.2,0,0,1,61.11,0,43,43,0,0,0,30.56,12.67A43,43,0,0,0,196,12.66a43.23,43.23,0,0,1,73.78,30.56Z" style="fill:#1d1d1b"/><path d="M313.62,128.93h0a18.39,18.39,0,0,1-4.94,12.57c-.34.32-.66.65-1,1a18.44,18.44,0,0,1-12.58,4.93h0a18.44,18.44,0,0,1-12.54-4.9l-.06-.07c-.3-.31-.6-.62-.92-.92l-.07-.06a18.44,18.44,0,0,1-4.9-12.54h0a18.44,18.44,0,0,1,4.7-12.32l1.48-1.48a18.42,18.42,0,0,1,12.31-4.7h0a18.44,18.44,0,0,1,12.58,4.93l1,1A18.39,18.39,0,0,1,313.62,128.93Z" style="fill:#1d1d1b"/></g></g></svg>